<svg width="590px" height="275px" id="Contact-Us" viewBox="0 0 590 275" version="1.1" xmlns="http://www.w3.org/2000/svg" xmlns:xlink="http://www.w3.org/1999/xlink">
    <defs>
        <linearGradient x1="55.1749592%" y1="21.6579874%" x2="54.382421%" y2="75.1141203%" id="linearGradient-1">
            <stop stop-color="#E7F4FF" offset="0%"></stop>
            <stop stop-color="#F2F8FD" stop-opacity="0" offset="100%"></stop>
        </linearGradient>
        <linearGradient x1="21.943061%" y1="1.17564116e-05%" x2="93.8316087%" y2="71.8882226%" id="linearGradient-2">
            <stop stop-color="#EECB6E" offset="0%"></stop>
            <stop stop-color="#EA6A5D" offset="100%"></stop>
        </linearGradient>
        <path d="M35.71,1.075 C47.786,-0.117 67.472,1.889 74.547,9.702 C76.108,11.426 76.116,14.655 75.279,19.122 C72.324,34.905 58.822,66.139 65.998,100.989 L3.127,100.989 C3.127,100.989 9.09,73.756 5.758,65.163 C1.948,55.338 -1.349,46.463 2.402,38.253 C10.943,19.567 3.294,11.831 8.702,9.13 C17.146,4.839 26.296,2.11 35.71,1.075 Z" id="path-3"></path>
        <linearGradient x1="28.6276451%" y1="-63.1417371%" x2="85.128674%" y2="-1.18805267%" id="linearGradient-5">
            <stop stop-color="#EECB6E" offset="0%"></stop>
            <stop stop-color="#EA6A5D" offset="100%"></stop>
        </linearGradient>
        <path d="M22.96,3.258 C22.96,3.258 32.651,28.57 40.96,49.258 C47.668,65.958 7.217,88.725 7.217,88.725 L0.537,79.773 L23.837,53.949 L9.586,23.908 C9.586,23.908 1.326,7.521 13.866,1.713 C20.843,-1.516 22.96,3.258 22.96,3.258 Z" id="path-6"></path>
        <linearGradient x1="23.4174124%" y1="0%" x2="92.8396297%" y2="69.4306556%" id="linearGradient-8">
            <stop stop-color="#9DC7EB" offset="0%"></stop>
            <stop stop-color="#5070D5" offset="100%"></stop>
        </linearGradient>
        <linearGradient x1="0%" y1="28.0461048%" x2="61.0218586%" y2="89.0680422%" id="linearGradient-9">
            <stop stop-color="#9DC7EB" offset="0%"></stop>
            <stop stop-color="#5070D5" offset="100%"></stop>
        </linearGradient>
        <linearGradient x1="21.1530873%" y1="0%" x2="94.3270776%" y2="73.1709855%" id="linearGradient-10">
            <stop stop-color="#9DC7EB" offset="0%"></stop>
            <stop stop-color="#5070D5" offset="100%"></stop>
        </linearGradient>
        <linearGradient x1="0%" y1="35.429383%" x2="45.1303403%" y2="80.558229%" id="linearGradient-11">
            <stop stop-color="#9DC7EB" offset="0%"></stop>
            <stop stop-color="#5070D5" offset="100%"></stop>
        </linearGradient>
    </defs>
    <g id="Page-1" stroke="none" stroke-width="1" fill="none" fill-rule="evenodd">
        <g id="Contact-Us" transform="translate(0.000000, 1.000000)">
            <path d="M431.019,26.712 C411.173,-0.6294 380.954,-12.6119 348.849,27.2903 C320.316,62.7544 286.874,51.8901 270.209,41.848 C242.376,25.0766 204.239,13.2047 187.462,49.6778 C170.685,86.151 187.123,120.131 123.8149,130.754 C60.50661,141.378 63.81826,219.676 123.5019,235.236 C183.185,250.796 203.728,216.049 257.337,230.917 C311.676,245.988 295.117,286.325 391.205,276.745 C487.293,267.165 463.694,71.728 431.019,26.712 Z" id="background" fill="url(#linearGradient-1)" fill-rule="nonzero"></path>
            <path d="M235.305,15.4434 C234.921,14.5687 234.354,13.789 233.641,13.1586 C232.927,12.5282 232.087,12.0623 231.176,11.7936 C230.266,11.5248 229.309,11.4595 228.372,11.6024 C227.434,11.7452 226.538,12.0927 225.748,12.6206 C225.298,11.6531 224.62,10.8112 223.773,10.1683 C222.926,9.5254 221.937,9.101 220.89,8.932 C219.843,8.763 218.772,8.8546 217.768,9.1988 C216.765,9.5429 215.86,10.1292 215.133,10.9066 C214.086,9.6894 212.787,8.7193 211.327,8.0653 C209.867,7.4112 208.282,7.0893 206.684,7.1223 C205.087,7.1552 203.516,7.5423 202.084,8.256 C200.651,8.9698 199.392,9.9926 198.396,11.2521 C197.789,10.5032 197.025,9.8992 196.159,9.4836 C195.293,9.0681 194.346,8.8512 193.387,8.8486 C193.314,8.8486 193.247,8.867 193.175,8.8696 C191.935,6.2998 189.992,4.1413 187.575,2.6487 C185.158,1.1561 182.368,0.3919 179.534,0.4461 C176.7,0.5002 173.941,1.3707 171.582,2.9546 C169.2227,4.5385 167.3621,6.7698 166.2196,9.3852 C165.3364,9.0016 164.3801,8.8195 163.419,8.8521 C162.4579,8.8846 161.5158,9.1309 160.6601,9.5733 C159.8045,10.0157 159.0563,10.6433 158.4692,11.4113 C157.8821,12.1792 157.4706,13.0685 157.2641,14.0155 C155.8828,13.0235 154.1709,12.6172 152.4958,12.8836 C150.8207,13.1501 149.316,14.0682 148.3047,15.4407 L235.305,15.4434 Z" id="cloud_2" fill="#CED7E2" fill-rule="nonzero" opacity="0.5"></path>
            <path d="M386.305,26.4434 C386.732,25.452 387.365,24.568 388.159,23.8533 C388.954,23.1386 389.892,22.6104 390.906,22.3055 C391.921,22.0006 392.988,21.9264 394.034,22.0881 C395.079,22.2498 396.078,22.6435 396.959,23.2417 C397.461,22.1453 398.217,21.1913 399.161,20.4628 C400.105,19.7343 401.208,19.2535 402.375,19.0621 C403.542,18.8708 404.737,18.9747 405.855,19.365 C406.974,19.7553 407.982,20.42 408.793,21.3012 C409.959,19.9208 411.408,18.8207 413.037,18.079 C414.665,17.3373 416.433,16.9722 418.214,17.0095 C419.996,17.0469 421.748,17.4858 423.345,18.2951 C424.943,19.1045 426.346,20.2644 427.457,21.6925 C428.134,20.8442 428.986,20.16 429.952,19.6892 C430.917,19.2183 431.973,18.9725 433.042,18.9693 C433.124,18.9693 433.198,18.9907 433.278,18.9942 C434.66,16.0816 436.827,13.635 439.521,11.9432 C442.216,10.2514 445.327,9.3851 448.487,9.4464 C451.646,9.5077 454.723,10.4942 457.353,12.2894 C459.984,14.0845 462.058,16.6135 463.332,19.5776 C464.316,19.1428 465.382,18.9365 466.454,18.9733 C467.526,19.0101 468.576,19.2891 469.53,19.7905 C470.484,20.2919 471.318,21.0032 471.973,21.8734 C472.627,22.7437 473.086,23.7515 473.316,24.8247 C474.856,23.7004 476.765,23.2398 478.632,23.5418 C480.5,23.8438 482.177,24.8842 483.305,26.4398 L386.305,26.4434 Z" id="cloud_1" fill="#CED7E2" fill-rule="nonzero" opacity="0.5">
                <!-- <animateMotion dur="10s" repeatCount="indefinite" path="M0,14.2217023 C109.911829,-4.74056743 204.825812,-4.74056743 284.741948,14.2217023 C404.616152,42.6651069 486,51.2217023 590,14.2217023" /> -->
            </path>
            <!-- <path d="M0,14.2217023 C109.911829,-4.74056743 204.825812,-4.74056743 284.741948,14.2217023 C404.616152,42.6651069 486,51.2217023 590,14.2217023" id="Path-2" stroke="#979797"></path> -->
            <g id="Leaf_3" transform="translate(363.616152, 100.425638)">
                <path d="M10.742848,79.6393617 C2.042848,78.1073617 -7.367152,52.7573617 8.828848,44.2633617 C25.024848,35.7693617 30.486848,31.2633617 33.871848,11.4853617 C37.256848,-8.29263825 48.771848,1.09236175 46.178848,12.6713617 C43.585848,24.2503617 60.878848,22.8113617 64.478848,28.3343617 C70.729848,37.9043617 56.902848,39.4343617 48.984848,44.8803617 C41.066848,50.3263617 55.197848,54.0553617 49.577848,63.2733617 C43.957848,72.4913617 25.572848,82.2513617 10.742848,79.6393617 Z" id="Path" fill="#CED7E2" fill-rule="nonzero"></path>
                <path d="M9.852848,79.3983617 C10.660848,78.4483617 27.120848,50.8563617 37.070848,37.6203617" id="Path" stroke="#FFFFFF" stroke-width="1.177"></path>
                <path d="M18.830848,65.0303617 L40.028848,60.1063617" id="Path" stroke="#FFFFFF" stroke-width="1.177"></path>
                <path d="M27.446848,51.5513617 L27.881848,38.8523617" id="Path" stroke="#FFFFFF" stroke-width="1.177"></path>
            </g>
            <g id="Leaf_2" transform="translate(333.618925, 123.172023)">
                <path d="M43.4560754,69.6029765 C43.4560754,69.6029765 38.5770754,60.0769765 46.9080754,53.9709765 C55.2390754,47.8649765 58.9260754,40.0169765 54.1730754,32.8049765 C49.4200754,25.5929765 37.2180754,30.0889765 32.0590754,26.6409765 C26.9000754,23.1929765 29.1180754,15.8149765 24.8880754,7.83497654 C19.2190754,-2.86502346 8.24707535,-0.0370234552 5.67907535,1.61397654 C3.11107535,3.26497654 -1.43792465,8.31397654 4.51707535,18.0139765 C10.4720754,27.7139765 6.08307535,31.1189765 1.34307535,38.7339765 C-3.39692465,46.3489765 4.91007535,49.3099765 18.3940754,51.8819765 C31.8780754,54.4539765 34.2060754,71.0159765 34.2060754,71.0159765 L43.4560754,69.6029765 Z" id="Path" fill="#DCE3EB" fill-rule="nonzero"></path>
                <path d="M40.0280754,79.1759765 C40.0280754,79.1759765 42.0530754,43.2489765 12.5920754,10.4179765" id="Path" stroke="#FFFFFF" stroke-width="1.593"></path>
                <path d="M34.3260754,48.1979765 C34.3260754,48.1979765 26.6430754,37.6199765 8.19007535,39.4339765" id="Path" stroke="#FFFFFF" stroke-width="1.593"></path>
                <path d="M36.3870754,54.1259765 C36.3870754,54.1259765 32.6100754,38.9039765 48.0450754,33.9819765" id="Path" stroke="#FFFFFF" stroke-width="1.593"></path>
            </g>
            <g id="Leaf_1" transform="translate(375.418501, 145.901566)">
                <path d="M30.8584989,41.9524343 C46.3034989,45.8584343 46.6774989,32.3994343 37.2144989,24.8944343 C31.2994989,20.2024343 43.3754989,17.6944343 48.0514989,13.1384343 C56.0874989,5.30043433 43.2004989,-4.55156567 36.5164989,2.31343433 C29.8324989,9.17843433 25.6864989,11.2864343 20.8164989,11.8854343 C15.9464989,12.4844343 2.20349886,12.6334343 3.38949886,21.3764343 C4.12849886,26.8244343 -0.582501142,31.4764343 0.060498858,36.9394343 C14.3444989,32.1064343 22.8114989,39.9174343 30.8584989,41.9524343 Z" id="Path" fill="#F1F6FB" fill-rule="nonzero"></path>
                <path d="M0.061498858,36.9394343 C0.061498858,36.9394343 20.7414989,21.4174343 37.6954989,13.2394343" id="Path" stroke="#FFFFFF" stroke-width="1.494"></path>
                <path d="M15.9284989,25.8954343 L17.8664989,13.9904343" id="Path" stroke="#FFFFFF" stroke-width="1.494"></path>
                <path d="M11.6974989,28.7124343 L33.6304989,28.7774343" id="Path" stroke="#FFFFFF" stroke-width="1.494"></path>
            </g>
            <g id="pot" transform="translate(360.524000, 179.646000)" fill-rule="nonzero">
                <polygon id="Path" fill="#CED7E2" points="31.4 28.343 8.8 28.343 3.539 5.753 36.664 5.753"></polygon>
                <polygon id="Path" fill="#DCE3EB" points="40.198 1.42108547e-14 0 1.42108547e-14 0 9.094 40.198 9.094"></polygon>
            </g>
            <g id="Cup" transform="translate(148.957500, 108.756000)" fill-rule="nonzero">
                <path d="M21.5275,73.692 C23.1365,69.705 27.0045,68.499 28.8975,64.9 C32.2865,58.459 26.5865,56.8 25.9095,52.518 C25.0095,46.818 29.0095,47.332 31.0745,43.861 C33.5025,39.781 29.3925,34.953 31.9135,31.078 C38.1795,21.446 48.3785,32.027 55.0245,34.253 C59.0955,35.617 65.1865,36.19 68.3905,33.6 C72.6215,30.181 76.8385,22.259 72.3585,17.685 C66.0455,11.241 68.3585,7.939 75.1865,6.308 C78.2085,5.586 79.5925,3.283 76.2385,0.653 C81.3385,8.018 64.3385,1.31 61.3105,6.308 C59.2105,9.779 61.8005,11.829 62.5315,14.497 C64.4005,21.324 59.7095,27.197 49.9255,20.362 C44.2995,16.431 44.7735,9.429 38.8065,7.646 C33.2285,5.979 26.7445,10.975 24.6935,17.678 C22.6635,24.311 20.2541,27.713 13.1051,26.958 C4.6111,26.058 -1.9399,31.325 1.8591,38.927 C5.2271,45.666 14.5591,41.837 19.2861,45.701 C24.5375,49.989 22.9035,55.894 16.1101,61.434 C14.0001,63.154 10.7561,65.722 11.5921,68.652 C12.1341,70.552 15.5251,73.571 17.7081,73.652 L21.5275,73.692 Z" id="WavePath" fill="#FFFFFF" opacity="0.74">
                </path>
                <path d="M34.1015,76.352 L32.2865,76.352 L32.2865,73.898 C32.2865,73.396 32.0865,72.914 31.7315,72.559 C31.3765,72.204 30.8955,72.004 30.3935,72.004 L8.893,72.004 C8.3909,72.004 7.9094,72.204 7.5544,72.559 C7.1994,72.914 7,73.396 7,73.898 L7,88.93 C7.0005,90.283 7.2677,91.623 7.7861,92.874 C8.3046,94.124 9.0643,95.26 10.0217,96.217 C10.9792,97.173 12.1157,97.932 13.3664,98.45 C14.6171,98.967 15.9575,99.233 17.311,99.233 L21.9815,99.233 C24.1285,99.232 26.2215,98.56 27.9685,97.311 C29.7155,96.062 31.0275,94.299 31.7235,92.267 L34.1035,92.267 C34.9765,92.267 35.8135,91.92 36.4305,91.303 C37.0485,90.685 37.3955,89.848 37.3955,88.975 L37.3955,79.641 C37.3945,78.768 37.0465,77.931 36.4295,77.314 C35.8115,76.697 34.9735,76.351 34.1015,76.352 Z M35.2895,88.979 C35.2885,89.294 35.1635,89.596 34.9405,89.819 C34.7185,90.041 34.4165,90.166 34.1015,90.167 L32.2015,90.167 C32.2525,89.756 32.2795,89.343 32.2825,88.93 L32.2825,78.452 L34.0975,78.452 C34.4125,78.452 34.7145,78.577 34.9365,78.8 C35.1595,79.023 35.2845,79.325 35.2855,79.64 L35.2895,88.979 Z" id="Shape" fill="#CED7E2"></path>
                <path d="M29.5255,77.339 C29.5195,75.505 29.1485,73.69 28.4355,72 L8.895,72 C8.3928,72 7.9113,72.2 7.5564,72.555 C7.2014,72.91 7.002,73.392 7.002,73.894 L7.002,88.926 C6.9995,90.68 7.4471,92.406 8.302,93.938 C8.602,93.948 8.889,93.974 9.188,93.974 C20.422,93.974 29.5255,86.526 29.5255,77.339 Z" id="Path" fill="#DCE3EB"></path>
            </g>
            <g id="Desk" transform="translate(122.280800, 207.989000)" fill-rule="nonzero">
                <path d="M286.3552,22.652 L14.1099,22.652 C13.4174,22.652 12.7317,22.515 12.092,22.25 C11.4522,21.985 10.871,21.597 10.3813,21.107 C9.8917,20.618 9.5033,20.036 9.2383,19.397 C8.9733,18.757 8.8369,18.071 8.8369,17.379 C8.8369,15.98 9.3924,14.639 10.3813,13.65 C11.3702,12.661 12.7114,12.106 14.1099,12.106 L286.3552,12.106 C287.7532,12.106 289.0942,12.661 290.0832,13.65 C291.0722,14.639 291.6282,15.98 291.6282,17.379 C291.6282,18.071 291.4912,18.757 291.2262,19.397 C290.9612,20.036 290.5732,20.618 290.0832,21.107 C289.5942,21.597 289.0122,21.985 288.3732,22.25 C287.7332,22.515 287.0472,22.652 286.3552,22.652 Z" id="Path" fill="#CED7E2"></path>
                <path d="M293.0262,14.879 L7.439,14.879 C5.4661,14.879 3.5741,14.095 2.1791,12.7 C0.7841,11.305 0.0002,9.413 0,7.44 C0,5.467 0.7837,3.574 2.1787,2.179 C3.5738,0.784 5.4659,1.42108547e-14 7.439,1.42108547e-14 L293.0262,1.42108547e-14 C294.0032,1.42108547e-14 294.9702,0.192 295.8732,0.566 C296.7752,0.94 297.5952,1.488 298.2862,2.179 C298.9772,2.87 299.5252,3.69 299.8992,4.593 C300.2732,5.495 300.4652,6.463 300.4652,7.44 C300.4652,9.413 299.6812,11.305 298.2862,12.7 C296.8912,14.095 294.9992,14.879 293.0262,14.879 Z" id="Path" fill="#DCE3EB"></path>
            </g>
            <g id="Time-Clock" transform="translate(364.305000, 41.443800)">
                <path d="M19.319,38.6382 C29.988,38.6382 38.638,29.9882 38.638,19.319 C38.638,8.6495 29.988,7.10542736e-15 19.319,7.10542736e-15 C8.649,7.10542736e-15 -2.84217094e-14,8.6495 -2.84217094e-14,19.319 C-2.84217094e-14,29.9882 8.649,38.6382 19.319,38.6382 Z" id="Path" fill="#CED7E2" fill-rule="nonzero"></path>
                <path d="M19.318,34.3812 C27.637,34.3812 34.381,27.637 34.381,19.3179 C34.381,10.9989 27.637,4.2549 19.318,4.2549 C10.999,4.2549 4.255,10.9989 4.255,19.3179 C4.255,27.637 10.999,34.3812 19.318,34.3812 Z" id="Path" fill="#FFFFFF" fill-rule="nonzero"></path>
                <path d="M19.318,19.3178 L19.318,10.2608" id="minutePath" stroke="#CED7E2" stroke-width="0.978" stroke-linecap="round" stroke-linejoin="round"></path>
                <path d="M19.318,19.3189 L24.855,24.8559" id="hourPath" stroke="#CED7E2" stroke-width="0.978" stroke-linecap="round" stroke-linejoin="round"></path>
                <path d="M19.318,32.6772 L19.318,30.8892" id="path" stroke="#CED7E2" stroke-width="0.684" stroke-linecap="round" stroke-linejoin="round"></path>
                <path d="M25.995,30.8902 L25.101,29.3392" id="Path" stroke="#CED7E2" stroke-width="0.684" stroke-linecap="round" stroke-linejoin="round"></path>
                <path d="M30.886,26 L29.335,25.106" id="Path" stroke="#CED7E2" stroke-width="0.684" stroke-linecap="round" stroke-linejoin="round"></path>
                <path d="M32.682,19.3208 L30.885,19.3208" id="Path" stroke="#CED7E2" stroke-width="0.684" stroke-linecap="round" stroke-linejoin="round"></path>
                <path d="M30.885,12.6426 L29.343,13.5366" id="Path" stroke="#CED7E2" stroke-width="0.684" stroke-linecap="round" stroke-linejoin="round"></path>
                <path d="M25.995,7.752 L25.101,9.294" id="Path" stroke="#CED7E2" stroke-width="0.684" stroke-linecap="round" stroke-linejoin="round"></path>
                <path d="M19.318,7.7516 L19.318,5.9546" id="Path" stroke="#CED7E2" stroke-width="0.684" stroke-linecap="round" stroke-linejoin="round"></path>
                <path d="M13.532,9.303 L12.638,7.752" id="Path" stroke="#CED7E2" stroke-width="0.684" stroke-linecap="round" stroke-linejoin="round"></path>
                <path d="M9.291,13.5366 L7.749,12.6426" id="Path" stroke="#CED7E2" stroke-width="0.684" stroke-linecap="round" stroke-linejoin="round"></path>
                <path d="M7.748,19.3208 L5.96,19.3208" id="Path" stroke="#CED7E2" stroke-width="0.684" stroke-linecap="round" stroke-linejoin="round"></path>
                <path d="M9.3,25.106 L7.749,26" id="Path" stroke="#CED7E2" stroke-width="0.684" stroke-linecap="round" stroke-linejoin="round"></path>
                <path d="M13.532,29.3392 L12.638,30.8902" id="Path" stroke="#CED7E2" stroke-width="0.684" stroke-linecap="round" stroke-linejoin="round"></path>
                <path d="M19.318,20.1919 C19.801,20.1919 20.192,19.8006 20.192,19.3179 C20.192,18.8352 19.801,18.4439 19.318,18.4439 C18.835,18.4439 18.444,18.8352 18.444,19.3179 C18.444,19.8006 18.835,20.1919 19.318,20.1919 Z" id="Path" fill="#CED7E2" fill-rule="nonzero"></path>
            </g>
            <g id="lady" transform="translate(250.922000, 32.038115)">
                <path d="M21.747,23.415785 C21.747,23.415785 19.647,14.120785 28.587,6.14178503 C37.527,-1.83721497 51.352,-1.11021497 58.93,3.05078503 C68.751,8.44378503 78.392,22.714785 69.58,43.101885 C60.768,63.488885 101.147,55.069885 87.598,82.690885 C74.049,110.311885 50.639,91.240885 42.221,102.683885 C33.803,114.126885 4.664,84.125885 29.558,63.152885 C54.452,42.179885 23.631,42.269885 21.747,23.415785 Z" id="Path" fill="#221B4C" fill-rule="nonzero"></path>
                <path d="M19.468,84.269885 C9.25,88.624885 0.79,114.518885 1.42108547e-14,169.760885 L22.021,169.760885 C22.021,169.760885 35.4,77.480885 19.468,84.269885 Z" id="Path" fill="#EFC880" fill-rule="nonzero"></path>
                <path d="M46.788,76.036885 C58.864,74.844885 78.55,76.850885 85.625,84.663885 C87.186,86.387885 87.194,89.616885 86.357,94.083885 C83.402,109.866885 69.9,141.100885 77.076,175.950885 L14.205,175.950885 C14.205,175.950885 20.168,148.717885 16.836,140.124885 C13.026,130.299885 9.729,121.424885 13.48,113.214885 C22.021,94.528885 14.372,86.792885 19.78,84.091885 C28.224,79.800885 37.374,77.071885 46.788,76.036885 Z" id="Path" fill="url(#linearGradient-2)" fill-rule="nonzero"></path>
                <g id="Clipped" transform="translate(11.078000, 74.961885)">
                    <mask id="mask-4" fill="white">
                        <use xlink:href="#path-3"></use>
                    </mask>
                    <g id="Path"></g>
                    <g id="Group" opacity="0.2766" mask="url(#mask-4)">
                        <g transform="translate(-19.000000, -4.000000)" id="Path">
                            <path d="M72.209,1.093 C88.383,3.233 99.886,17.899 98.111,34.117 L92.355,86.701 C91.188,97.366 82.179,105.443 71.449,105.443 L2.305,105.443 L0.305,51.943 L24.304,8.944 L62.449,1.403 C65.664,0.768 68.961,0.663 72.209,1.093 Z" style="mix-blend-mode: multiply;"></path>
                        </g>
                    </g>
                </g>
                <path d="M72.735,122.280885 C70.105,137.538885 52.435,139.423885 43.58,136.441885 C43.58,136.441885 56.47,144.241885 65.764,139.861885 C65.764,139.861885 68.132,147.314885 64.592,170.753885 L76.147,170.753885 C76.147,170.753885 76.147,170.706885 76.14,170.633885 C74.531,159.132885 74.646,147.456885 76.481,135.989885 C76.716,133.584885 77.129,131.199885 77.716,128.855885 L77.733,128.790885 C79.198,121.317885 81.033,114.490885 82.676,108.523885 C83.363,104.553885 83.688,100.529885 83.647,96.501885 C78.12,104.165885 74.39,112.977885 72.735,122.280885 Z" id="Path" fill="#E2704C" fill-rule="nonzero" opacity="0.5"></path>
                <path d="M73.394,155.031885 C73.394,155.031885 62.412,168.520885 57.101,164.867885 C50.069,160.029885 44.281,160.116885 39.634,162.892885 C36.654,164.761885 34.326,167.507885 32.97,170.753885 L70.664,170.753885 L81.635,161.258885 L73.394,155.031885 Z" id="Path" fill="#F1B493" fill-rule="nonzero"></path>
                <path d="M86.038,85.219885 C86.038,85.219885 95.729,110.531885 104.038,131.219885 C110.746,147.919885 70.295,170.686885 70.295,170.686885 L63.615,161.734885 L86.915,135.910885 L72.664,105.869885 C72.664,105.869885 64.404,89.482885 76.944,83.674885 C83.921,80.445885 86.038,85.219885 86.038,85.219885 Z" id="Path" fill="url(#linearGradient-5)" fill-rule="nonzero"></path>
                <g id="Clipped" transform="translate(63.078000, 81.961885)">
                    <mask id="mask-7" fill="white">
                        <use xlink:href="#path-6"></use>
                    </mask>
                    <g id="Path"></g>
                    <g id="Group" opacity="0.2766" mask="url(#mask-7)">
                        <g transform="translate(-29.000000, -14.000000)" id="Path">
                            <path d="M72.209,1.093 C88.383,3.233 99.886,17.899 98.111,34.117 L92.355,86.701 C91.188,97.366 82.179,105.443 71.449,105.443 L2.305,105.443 L0.305,51.943 L24.304,8.944 L62.449,1.403 C65.664,0.768 68.961,0.663 72.209,1.093 Z" style="mix-blend-mode: multiply;"></path>
                        </g>
                    </g>
                </g>
                <path d="M55.057,51.387885 C55.057,51.387885 53.533,70.576885 58.136,75.587885 C64.054,82.032885 53.664,95.930885 38.056,106.452885 C38.056,106.452885 29.331,96.763885 36.171,80.980885 C43.011,65.197885 36.381,56.280885 36.381,56.280885 L55.057,51.387885 Z" id="Path" fill="#DD9F7D" fill-rule="nonzero"></path>
                <path d="M58.136,43.101885 C58.136,56.249885 48.873,66.896885 41.047,66.896885 C33.221,66.896885 23.447,58.152885 22.127,41.974885 C21.062,28.874885 28.127,19.294885 38.801,19.294885 C49.475,19.294885 58.136,29.953885 58.136,43.101885 Z" id="Path" fill="#F1B493" fill-rule="nonzero"></path>
                <path d="M25.524,16.215585 C24.424,16.849585 22.043,18.393585 19.267,20.240585 C16.244,22.253585 13.022,25.740585 11.913,29.553585 C10.013,36.103585 14.83,44.401885 24.413,41.471885 C33.996,38.541885 38.581,23.162585 46.36,32.052585 C56.027,43.101885 59.535,36.943585 59.535,36.943585 C59.535,36.943585 57.596,23.187585 47.8,16.996585 C42.554,13.678585 34.647,10.954585 25.524,16.215585 Z" id="Path" fill="#221B4C" fill-rule="nonzero"></path>
            </g>
            <g id="Headphone" transform="translate(270.188000, 44.083027)">
                <path d="M45.325,26.3249735 C45.325,30.6139735 42.79,34.0909735 39.662,34.0909735 C36.534,34.0909735 34,30.6139735 34,26.3249735 C34,22.0360735 36.534,18.5590735 39.662,18.5590735 C42.79,18.5590735 45.325,22.0330735 45.325,26.3249735 Z" id="Path" fill="url(#linearGradient-8)" fill-rule="nonzero"></path>
                <path d="M21.84,0.435673466 C13.13,-1.24232653 4.731,2.04967347 1.42108547e-14,8.19567347 C2.773,6.34227347 5.885,5.05527347 9.157,4.40867347 C12.429,3.76197347 15.797,3.76847347 19.066,4.42767347 C30.636,6.65567347 38.831,16.0526735 39.103,26.4869735 C39.321,25.8021735 39.499,25.1056735 39.635,24.4006735 C41.741,13.4626735 33.774,2.73367347 21.84,0.435673466 Z" id="Path" fill="url(#linearGradient-9)" fill-rule="nonzero"></path>
                <path d="M38.43,28.8569735 C38.43,28.8569735 40.009,46.4089735 23.875,48.0749735" id="Path" stroke="url(#linearGradient-10)" stroke-width="1.052"></path>
                <path d="M22.823,49.8249735 L20.281,49.8249735 C19.885,49.8249735 19.506,49.6669735 19.227,49.3879735 C18.947,49.1079735 18.791,48.7289735 18.791,48.3339735 C18.791,47.9389735 18.947,47.5589735 19.227,47.2799735 C19.506,46.9999735 19.885,46.8429735 20.281,46.8429735 L22.824,46.8429735 C23.219,46.8429735 23.598,46.9999735 23.878,47.2789735 C24.157,47.5589735 24.315,47.9379735 24.315,48.3339735 C24.315,48.5299735 24.276,48.7239735 24.201,48.9049735 C24.126,49.0859735 24.016,49.2499735 23.877,49.3879735 C23.739,49.5269735 23.574,49.6369735 23.393,49.7119735 C23.212,49.7859735 23.018,49.8249735 22.823,49.8249735 Z" id="Path" fill="url(#linearGradient-11)" fill-rule="nonzero"></path>
            </g>
            <g id="Laptop" transform="translate(178.617053, 142.871000)" fill-rule="nonzero">
                <path d="M152.086947,59.859 L60.5169474,59.859 C59.2369474,59.859 58.1999474,60.896 58.1999474,62.176 L58.1999474,62.801 C58.1999474,64.081 59.2369474,65.118 60.5169474,65.118 L152.086947,65.118 C153.366947,65.118 154.403947,64.081 154.403947,62.801 L154.403947,62.176 C154.403947,60.896 153.366947,59.859 152.086947,59.859 Z" id="Path" fill="#CED7E2"></path>
                <path d="M109.751947,65.118 L25.1819474,65.118 C24.0599474,65.118 22.9649474,64.772 22.0459474,64.128 C21.1269474,63.484 20.4279474,62.573 20.0449474,61.518 L0.329947414,7.337 C0.0289474141,6.511 -0.0680525859,5.625 0.0469474141,4.754 C0.161947414,3.882 0.484947414,3.051 0.988947414,2.332 C1.49294741,1.612 2.16294741,1.024 2.94294741,0.618 C3.72194741,0.212 4.58794741,0 5.46694741,0 L90.0359474,0 C91.1579474,0.001 92.2529474,0.346 93.1719474,0.99 C94.0909474,1.634 94.7899474,2.545 95.1729474,3.6 L114.892947,57.78 C115.193947,58.606 115.290947,59.493 115.175947,60.365 C115.061947,61.237 114.737947,62.068 114.233947,62.788 C113.728947,63.508 113.057947,64.096 112.277947,64.502 C111.497947,64.907 110.630947,65.119 109.751947,65.118 Z" id="Path" fill="#CED7E2"></path>
                <path d="M3.51494741,0.363 C3.83294741,32.385 46.7149474,58.285 99.5819474,58.285 C104.764947,58.285 109.849947,58.033 114.809947,57.554 L95.1729474,3.602 C94.7889474,2.547 94.0909474,1.636 93.1719474,0.992 C92.2529474,0.348 91.1579474,0.002 90.0359474,0.002 L5.46694741,0.002 C4.79994741,0.002 4.13794741,0.124 3.51494741,0.363 Z" id="Path" fill="#DCE3EB"></path>
                <path d="M62.7519474,31.484 C62.7519474,32.75 62.3759474,33.987 61.6729474,35.04 C60.9699474,36.092 59.9699474,36.913 58.8009474,37.397 C57.6319474,37.881 56.3449474,38.008 55.1029474,37.761 C53.8619474,37.514 52.7209474,36.905 51.8259474,36.01 C50.9309474,35.114 50.3219474,33.974 50.0749474,32.733 C49.8279474,31.491 49.9549474,30.204 50.4389474,29.035 C50.9229474,27.865 51.7439474,26.866 52.7959474,26.163 C53.8489474,25.459 55.0859474,25.084 56.3519474,25.084 C58.0489474,25.084 59.6769474,25.758 60.8769474,26.959 C62.0779474,28.159 62.7519474,29.787 62.7519474,31.484 Z" id="Path" fill="#FFFFFF"></path>
            </g>
            <g id="Message_2" transform="translate(193.588904, 39.480970)">
                <path d="M35.5370957,6.09873046 C32.7790957,3.34013046 29.3010957,1.41193046 25.5010957,0.534030463 C21.7000957,-0.343869537 17.7290957,-0.136169537 14.0410957,1.13343046 C10.3520957,2.40303046 7.09509568,4.68343046 4.64009568,7.71473046 C2.18509568,10.7460305 0.631095682,14.4061305 0.155095682,18.2778305 C-0.319904318,22.1495305 0.301095682,26.0769305 1.95009568,29.6123305 C3.59809568,33.1480305 6.20709568,36.1490305 9.47809568,38.2730305 C12.7500957,40.3980305 16.5520957,41.5610305 20.4520957,41.6290305 C24.3520957,41.6970305 28.1930957,40.6680305 31.5370957,38.6590305 C31.9050957,38.4400305 32.3150957,38.3010305 32.7400957,38.2490305 C33.1660957,38.1970305 33.5970957,38.2350305 34.0070957,38.3590305 L39.2700957,39.9260305 C39.3610957,39.9530305 39.4570957,39.9550305 39.5490957,39.9310305 C39.6410957,39.9080305 39.7250957,39.8600305 39.7920957,39.7930305 C39.8590957,39.7260305 39.9070957,39.6420305 39.9300957,39.5500305 C39.9540957,39.4580305 39.9520957,39.3620305 39.9250957,39.2710305 L38.3590957,34.0070305 C38.2340957,33.5960305 38.1960957,33.1630305 38.2480957,32.7370305 C38.3000957,32.3110305 38.4400957,31.9000305 38.6590957,31.5310305 C41.0490957,27.5505305 42.0400957,22.8856305 41.4740957,18.2775305 C40.9080957,13.6695305 38.8190957,9.38283046 35.5370957,6.09873046 Z" id="Path" fill="#DCE3EB" fill-rule="nonzero"></path>
                <path d="M9.03809568,11.7109305 L32.6290957,11.7109305" id="line_Path_1" stroke="#FFFFFF" stroke-width="1.665" stroke-linecap="round" stroke-linejoin="round"></path>
                <path d="M26.9710957,17.7807305 L32.6290957,17.7807305" id="line_Path_2" stroke="#FFFFFF" stroke-width="1.665" stroke-linecap="round" stroke-linejoin="round"></path>
                <path d="M9.03809568,17.7807305 L21.3510957,17.7807305" id="line_Path_3" stroke="#FFFFFF" stroke-width="1.665" stroke-linecap="round" stroke-linejoin="round"></path>
                <path d="M19.8250957,23.8510305 L32.6290957,23.8510305" id="line_Path_4" stroke="#FFFFFF" stroke-width="1.665" stroke-linecap="round" stroke-linejoin="round"></path>
                <path d="M9.03809568,23.8510305 L15.1950957,23.8510305" id="line_Path_5" stroke="#FFFFFF" stroke-width="1.665" stroke-linecap="round" stroke-linejoin="round"></path>
                <path d="M26.9710957,29.9209305 L32.6290957,29.9209305" id="line_Path_6" stroke="#FFFFFF" stroke-width="1.665" stroke-linecap="round" stroke-linejoin="round"></path>
                <path d="M9.03809568,29.9209305 L21.0740957,29.9209305" id="line_Path_7" stroke="#FFFFFF" stroke-width="1.665" stroke-linecap="round" stroke-linejoin="round"></path>
            </g>
            <g id="Message_1" transform="translate(320.304537, 0.443857)" fill-rule="nonzero">
                <path d="M4.41946251,4.42484267 C6.42046251,2.42344267 8.94246251,1.02454267 11.7004625,0.387542671 C14.4574625,-0.249457329 17.3374625,-0.0988573293 20.0134625,0.822142671 C22.6894625,1.74314267 25.0524625,3.39754267 26.8334625,5.59664267 C28.6144625,7.79564267 29.7414625,10.4509427 30.0864625,13.2596427 C30.4314625,16.0683427 29.9804625,18.9174427 28.7844625,21.4820427 C27.5884625,24.0466427 25.6954625,26.2236427 23.3224625,27.7646427 C20.9484625,29.3056427 18.1894625,30.1487427 15.3604625,30.1977427 C12.5314625,30.2467427 9.74546251,29.4997427 7.31946251,28.0418427 C7.05246251,27.8832427 6.75546251,27.7821427 6.44646251,27.7449427 C6.13846251,27.7077427 5.82546251,27.7353427 5.52846251,27.8258427 L1.71046251,28.9618427 C1.64446251,28.9814427 1.57446251,28.9828427 1.50746251,28.9659427 C1.44146251,28.9490427 1.38046251,28.9144427 1.33146251,28.8657427 C1.28346251,28.8170427 1.24846251,28.7562427 1.23146251,28.6894427 C1.21446251,28.6227427 1.21646251,28.5527427 1.23546251,28.4868427 L2.37146251,24.6688427 C2.46246251,24.3700427 2.48946251,24.0556427 2.45146251,23.7457427 C2.41446251,23.4358427 2.31246251,23.1371427 2.15246251,22.8688427 C0.420462509,19.9818427 -0.297537491,16.5985427 0.112462509,13.2567427 C0.523462509,9.91494267 2.03946251,6.80634267 4.41946251,4.42484267 Z" id="Path" fill="#CED7E2"></path>
                <path d="M6.71046251,17.5376427 C8.05746251,17.5376427 9.14846251,16.4460427 9.14846251,15.0996427 C9.14846251,13.7531427 8.05746251,12.6616427 6.71046251,12.6616427 C5.36446251,12.6616427 4.27246251,13.7531427 4.27246251,15.0996427 C4.27246251,16.4460427 5.36446251,17.5376427 6.71046251,17.5376427 Z" id="Path" fill="#FFFFFF"></path>
                <path d="M15.0854625,17.5376427 C16.4324625,17.5376427 17.5234625,16.4460427 17.5234625,15.0996427 C17.5234625,13.7531427 16.4324625,12.6616427 15.0854625,12.6616427 C13.7394625,12.6616427 12.6474625,13.7531427 12.6474625,15.0996427 C12.6474625,16.4460427 13.7394625,17.5376427 15.0854625,17.5376427 Z" id="Path" fill="#FFFFFF"></path>
                <path d="M23.4604625,17.5376427 C24.8074625,17.5376427 25.8984625,16.4460427 25.8984625,15.0996427 C25.8984625,13.7531427 24.8074625,12.6616427 23.4604625,12.6616427 C22.1144625,12.6616427 21.0224625,13.7531427 21.0224625,15.0996427 C21.0224625,16.4460427 22.1144625,17.5376427 23.4604625,17.5376427 Z" id="Path" fill="#FFFFFF"></path>
            </g>
        </g>
    </g>
</svg>