<svg xmlns="http://www.w3.org/2000/svg" xmlns:xlink="http://www.w3.org/1999/xlink" width="2145" height="1477.977" viewBox="0 0 2145 1477.977"><defs><style>.a{fill:none;}.b{fill:#9f55ba;}.b,.c{opacity:0.056;}.c,.e,.g{fill:#fff;}.d{fill:#d9aefd;}.d,.e{opacity:0.083;}.f{fill:#55ba80;}.f,.g{opacity:0.061;}.h{filter:url(#g);}.i{filter:url(#d);}.j{filter:url(#a);}</style><filter id="a" x="1363" y="170" width="714" height="714" filterUnits="userSpaceOnUse"><feOffset dx="44" dy="80" input="SourceAlpha"/><feGaussianBlur stdDeviation="40" result="b"/><feFlood flood-color="#1c1c27" result="c"/><feComposite operator="out" in="SourceGraphic" in2="b"/><feComposite operator="in" in="c"/><feComposite operator="in" in2="SourceGraphic"/></filter><filter id="d" x="0" y="0" width="813.749" height="813.749" filterUnits="userSpaceOnUse"><feOffset dx="44" dy="80" input="SourceAlpha"/><feGaussianBlur stdDeviation="40" result="e"/><feFlood flood-color="#1c1c27" flood-opacity="0" result="f"/><feComposite operator="out" in="SourceGraphic" in2="e"/><feComposite operator="in" in="f"/><feComposite operator="in" in2="SourceGraphic"/></filter><filter id="g" x="731.571" y="692.924" width="785.054" height="785.054" filterUnits="userSpaceOnUse"><feOffset dx="44" dy="80" input="SourceAlpha"/><feGaussianBlur stdDeviation="40" result="h"/><feFlood flood-color="#1c1c27" result="i"/><feComposite operator="out" in="SourceGraphic" in2="h"/><feComposite operator="in" in="i"/><feComposite operator="in" in2="SourceGraphic"/></filter></defs><g transform="translate(804 450)"><rect class="a" width="1920" height="1080" transform="translate(-579 -245)"/><g data-type="innerShadowGroup"><circle class="b" cx="207" cy="207" r="207" transform="translate(709 -130)"/><g class="j" transform="matrix(1, 0, 0, 1, -804, -450)"><circle class="c" cx="207" cy="207" r="207" transform="translate(1513 320)"/></g></g><g data-type="innerShadowGroup"><circle class="d" cx="148.5" cy="148.5" r="148.5" transform="matrix(-0.259, -0.966, 0.966, -0.259, -502.131, 138.749)"/><g class="i" transform="matrix(1, 0, 0, 1, -804, -450)"><circle class="e" cx="148.5" cy="148.5" r="148.5" transform="matrix(-0.26, -0.97, 0.97, -0.26, 301.87, 588.75)"/></g></g><g data-type="innerShadowGroup"><circle class="f" cx="122.5" cy="122.5" r="122.5" transform="matrix(-0.309, -0.951, 0.951, -0.309, 241.448, 789.81)"/><g class="h" transform="matrix(1, 0, 0, 1, -804, -450)"><circle class="g" cx="122.5" cy="122.5" r="122.5" transform="matrix(-0.31, -0.95, 0.95, -0.31, 1045.45, 1239.81)"/></g></g></g></svg>