	<svg width="32" height="32" viewBox="0 0 32 32" fill="none" xmlns="http://www.w3.org/2000/svg">
								<path fill-rule="evenodd" clip-rule="evenodd" d="M25.3333 15.9997H18.6667V26.6663H25.3333C26.0697 26.6663 26.6667 26.0694 26.6667 25.333V17.333C26.6667 16.5966 26.0697 15.9997 25.3333 15.9997ZM16 13.333V29.333H25.3333C27.5425 29.333 29.3333 27.5421 29.3333 25.333V17.333C29.3333 15.1239 27.5425 13.333 25.3333 13.333H16Z" fill="#23262F"/>
								<path d="M24.0007 20.0003C24.0007 19.2639 23.4037 18.667 22.6673 18.667C21.9309 18.667 21.334 19.2639 21.334 20.0003C21.334 20.7367 21.9309 21.3337 22.6673 21.3337C23.4037 21.3337 24.0007 20.7367 24.0007 20.0003Z" fill="#23262F"/>
								<path d="M24.0007 24.0003C24.0007 23.2639 23.4037 22.667 22.6673 22.667C21.9309 22.667 21.334 23.2639 21.334 24.0003C21.334 24.7367 21.9309 25.3337 22.6673 25.3337C23.4037 25.3337 24.0007 24.7367 24.0007 24.0003Z" fill="#23262F"/>
								<path fill-rule="evenodd" clip-rule="evenodd" d="M6.66602 29.3337C4.45688 29.3337 2.66602 27.5428 2.66602 25.3337V6.66699C2.66602 4.45785 4.45688 2.66699 6.66602 2.66699H14.666C16.8752 2.66699 18.666 4.45785 18.666 6.66699V29.3337H6.66602ZM6.66602 5.33366H14.666C15.4024 5.33366 15.9993 5.93061 15.9993 6.66699V26.667H13.3327V25.3337C13.3327 24.5973 12.7357 24.0003 11.9993 24.0003H9.33268C8.5963 24.0003 7.99935 24.5973 7.99935 25.3337V26.667H6.66602C5.92964 26.667 5.33268 26.07 5.33268 25.3337V6.66699C5.33268 5.93061 5.92964 5.33366 6.66602 5.33366Z" fill="#23262F"/>
								<path d="M12 8C12.7364 8 13.3333 8.59695 13.3333 9.33333C13.3333 10.0697 12.7364 10.6667 12 10.6667H9.33333C8.59695 10.6667 8 10.0697 8 9.33333C8 8.59695 8.59695 8 9.33333 8H12Z" fill="#23262F"/>
								<path d="M12 13.3333C12.7364 13.3333 13.3333 13.9303 13.3333 14.6667C13.3333 15.403 12.7364 16 12 16H9.33333C8.59695 16 8 15.403 8 14.6667C8 13.9303 8.59695 13.3333 9.33333 13.3333H12Z" fill="#23262F"/>
								<path d="M13.3333 20C13.3333 19.2636 12.7364 18.6667 12 18.6667H9.33333C8.59695 18.6667 8 19.2636 8 20C8 20.7364 8.59695 21.3333 9.33333 21.3333H12C12.7364 21.3333 13.3333 20.7364 13.3333 20Z" fill="#23262F"/>
								</svg>