<svg width="256" height="269" viewBox="0 0 256 269" fill="none" xmlns="http://www.w3.org/2000/svg">
<path d="M166.974 37.5826C184.276 41.7887 200.818 51.1236 211.175 65.6079C221.328 79.8065 220.632 98.2635 222.753 115.589C224.926 133.332 231.231 151.896 223.728 168.121C216.15 184.51 198.339 192.699 182.824 201.936C167.174 211.252 151.4 222.676 133.199 222.013C114.957 221.349 99.9204 208.938 85.0336 198.373C70.1838 187.835 53.34 177.834 46.9279 160.791C40.5634 143.875 45.8112 125.144 50.9644 107.82C55.7117 91.8614 63.4178 77.0193 75.3128 65.3688C86.9097 54.0101 101.815 47.5083 117.35 42.7991C133.596 37.8742 150.478 33.5724 166.974 37.5826Z" fill="#F4F5F6"/>
<g filter="url(#filter0_d_5261_20737)">
<g clip-path="url(#clip0_5261_20737)">
<rect x="52.8047" y="34.7124" width="120" height="166" rx="24" transform="rotate(-15 52.8047 34.7124)" fill="#FCFCFD"/>
<path d="M146.344 135.607C168.491 129.673 181.634 106.909 175.7 84.7616C169.766 62.6147 147.001 49.4717 124.854 55.406C102.708 61.3402 89.5646 84.1045 95.4988 106.251C101.433 128.398 124.197 141.541 146.344 135.607Z" fill="url(#paint0_linear_5261_20737)"/>
<path fill-rule="evenodd" clip-rule="evenodd" d="M94.1714 92.6518C98.7598 93.6909 103.403 91.9277 108.101 87.3621C115.895 79.7876 117.575 75.7385 128.267 80.1141C138.959 84.4898 143.791 76.4144 149.612 69.4666C152.144 66.4454 156.157 63.5396 160.49 62.2782C167.686 67.6608 173.194 75.4082 175.7 84.7615C177.625 91.9452 177.543 99.1938 175.797 105.912C139.165 111.679 113.946 115.414 100.14 117.117C98.1295 113.815 96.5502 110.174 95.4991 106.251C94.2778 101.694 93.8645 97.1097 94.1714 92.6518Z" fill="url(#paint1_linear_5261_20737)"/>
<path fill-rule="evenodd" clip-rule="evenodd" d="M161.184 77.4062L147.502 71.8284L143.48 68.1285L139.822 72.4883L135.943 90.9836L165.385 85.3822L161.184 77.4062Z" fill="url(#paint2_linear_5261_20737)"/>
<path opacity="0.1" d="M138.711 106.85C146.795 104.684 151.592 96.3753 149.426 88.2917C147.26 80.2081 138.951 75.4109 130.867 77.5769C122.784 79.7429 117.986 88.0519 120.152 96.1355C122.318 104.219 130.627 109.016 138.711 106.85Z" fill="url(#paint3_linear_5261_20737)"/>
<path d="M137.319 101.922C142.708 100.478 145.906 94.9392 144.462 89.5501C143.018 84.161 137.479 80.9629 132.09 82.4069C126.701 83.8509 123.503 89.3902 124.947 94.7793C126.391 100.168 131.93 103.366 137.319 101.922Z" fill="url(#paint4_linear_5261_20737)"/>
<path fill-rule="evenodd" clip-rule="evenodd" d="M150.855 83.5361L144.042 75.9711L143.48 68.1285L139.822 72.4883L135.943 90.9836L165.385 85.3822L150.855 83.5361Z" fill="url(#paint5_linear_5261_20737)"/>
<path fill-rule="evenodd" clip-rule="evenodd" d="M104.916 109.135C101.185 102.222 99.8386 95.7929 100.876 89.8479L100.379 89.6045C98.2773 95.2885 98.3744 101.301 100.671 107.643L103.077 108.734L104.916 109.135Z" fill="url(#paint6_linear_5261_20737)"/>
<path fill-rule="evenodd" clip-rule="evenodd" d="M104.918 109.136C101.187 102.222 99.8404 95.793 100.878 89.8481C99.3194 95.4265 100.053 101.722 103.078 108.734C103.078 108.734 103.692 108.868 104.918 109.136Z" fill="url(#paint7_linear_5261_20737)"/>
<path fill-rule="evenodd" clip-rule="evenodd" d="M100.453 89.9654C102.155 90.6961 103.034 91.5995 103.089 92.6757C103.746 92.1088 103.983 91.4829 103.8 90.7979C103.524 89.7703 102.029 88.9008 100.537 89.6949L100.5 89.8277L100.453 89.9654Z" fill="url(#paint8_linear_5261_20737)"/>
<path fill-rule="evenodd" clip-rule="evenodd" d="M100.231 89.5504C102.119 87.6565 103.87 87.49 105.484 89.0509C104.043 88.8991 102.948 89.004 102.197 89.3658C101.447 89.7275 100.804 89.8525 100.268 89.7409L100.231 89.5504Z" fill="url(#paint9_linear_5261_20737)"/>
<path fill-rule="evenodd" clip-rule="evenodd" d="M100.488 90.0173C100.216 88.5644 100.363 87.4852 100.928 86.7798C101.493 86.0744 102.556 85.944 104.115 86.3885C102.411 87.0428 101.433 87.8594 101.181 88.8383C100.929 89.8171 100.698 90.2102 100.488 90.0173Z" fill="url(#paint10_linear_5261_20737)"/>
<path fill-rule="evenodd" clip-rule="evenodd" d="M100.289 89.6173C98.8558 88.1146 97.6944 87.8117 96.8046 88.7086C96.8348 87.6421 97.278 87.0056 98.134 86.7989C98.9901 86.5923 99.8175 87.5176 100.616 89.5749L100.289 89.6173Z" fill="url(#paint11_linear_5261_20737)"/>
<path fill-rule="evenodd" clip-rule="evenodd" d="M100.359 89.9138C98.6162 89.8274 97.6517 90.5361 97.465 92.0398C96.6832 91.0812 96.7065 90.199 97.535 89.393C98.3635 88.587 99.4256 88.6849 100.721 89.6866L100.359 89.9138Z" fill="url(#paint12_linear_5261_20737)"/>
<path d="M100.364 90.1914C100.585 90.132 100.717 89.9044 100.658 89.6829C100.598 89.4615 100.371 89.33 100.149 89.3894C99.9276 89.4487 99.7962 89.6764 99.8555 89.8978C99.9148 90.1193 100.142 90.2507 100.364 90.1914Z" fill="url(#paint13_linear_5261_20737)"/>
<path d="M100.934 90.1816C101.156 90.1223 101.287 89.8946 101.228 89.6732C101.168 89.4517 100.941 89.3203 100.719 89.3796C100.498 89.439 100.366 89.6666 100.426 89.8881C100.485 90.1095 100.713 90.241 100.934 90.1816Z" fill="url(#paint14_linear_5261_20737)"/>
<path fill-rule="evenodd" clip-rule="evenodd" d="M166.278 67.5247C170.62 72.2775 173.918 78.1139 175.699 84.7615C176.477 87.6655 176.927 90.5801 177.072 93.466C173.647 94.2763 171.491 94.4881 170.605 94.1014C168.9 93.358 156.91 92.6285 134.636 91.9129C141.964 86.4364 147.187 82.649 150.306 80.5509L158.311 69.7133L162.96 70.3989L166.278 67.5247Z" fill="url(#paint15_linear_5261_20737)"/>
<path fill-rule="evenodd" clip-rule="evenodd" d="M167.083 68.4311C171.028 73.0123 174.03 78.5306 175.7 84.7616C176.478 87.6656 176.928 90.5802 177.073 93.4661C173.648 94.2764 171.492 94.4882 170.606 94.1015C168.901 93.3581 156.911 92.6286 134.636 91.913L153.705 83.1591L166.163 81.3078L163.71 75.0188L167.083 68.4311Z" fill="url(#paint16_linear_5261_20737)"/>
<path fill-rule="evenodd" clip-rule="evenodd" d="M94.343 100.193C104.107 95.7059 116.514 93.0787 131.564 92.3113C116.46 102.056 105.965 110.292 100.08 117.02C98.0974 113.744 96.5387 110.136 95.4979 106.251C94.9569 104.233 94.5745 102.209 94.343 100.193Z" fill="url(#paint17_linear_5261_20737)"/>
<path fill-rule="evenodd" clip-rule="evenodd" d="M119.481 108.437L117.618 108.164L115.142 107.244C112.409 101.078 111.893 95.0864 113.593 89.2697L114.105 89.4779C113.485 95.4807 115.277 101.8 119.481 108.437Z" fill="url(#paint18_linear_5261_20737)"/>
<path fill-rule="evenodd" clip-rule="evenodd" d="M119.482 108.437C118.24 108.255 117.619 108.164 117.619 108.164C114.112 101.38 112.941 95.1515 114.106 89.478C113.486 95.4808 115.278 101.8 119.482 108.437Z" fill="url(#paint19_linear_5261_20737)"/>
<path fill-rule="evenodd" clip-rule="evenodd" d="M113.691 89.6246L113.728 89.484L113.755 89.349C115.188 88.4527 116.741 89.2158 117.087 90.2216C117.318 90.8922 117.126 91.5331 116.51 92.1444C116.379 91.0747 115.44 90.2348 113.691 89.6246Z" fill="url(#paint20_linear_5261_20737)"/>
<path fill-rule="evenodd" clip-rule="evenodd" d="M113.723 89.3029C114.934 86.9182 116.548 86.2187 118.565 87.2045C117.148 87.5053 116.138 87.9437 115.537 88.5195C114.935 89.0953 114.362 89.413 113.817 89.4726L113.723 89.3029Z" fill="url(#paint21_linear_5261_20737)"/>
<path fill-rule="evenodd" clip-rule="evenodd" d="M113.706 89.5704C113.138 88.2058 113.057 87.1197 113.463 86.3122C113.869 85.5047 114.881 85.1562 116.499 85.2668C114.968 86.2612 114.181 87.2633 114.138 88.2732C114.095 89.283 113.951 89.7154 113.706 89.5704Z" fill="url(#paint22_linear_5261_20737)"/>
<path fill-rule="evenodd" clip-rule="evenodd" d="M113.502 89.2887C111.968 87.8897 110.788 87.6685 109.963 88.6253C109.919 87.5593 110.316 86.8934 111.156 86.6275C111.995 86.3617 112.885 87.227 113.826 89.2236L113.502 89.2887Z" fill="url(#paint23_linear_5261_20737)"/>
<path fill-rule="evenodd" clip-rule="evenodd" d="M113.593 89.5796C111.849 89.615 110.936 90.3892 110.855 91.9023C110.008 91.0006 109.97 90.1188 110.74 89.257C111.51 88.3952 112.577 88.4188 113.939 89.3277L113.593 89.5796Z" fill="url(#paint24_linear_5261_20737)"/>
<path d="M113.591 89.8645C113.812 89.8051 113.943 89.5775 113.884 89.356C113.825 89.1346 113.597 89.0031 113.376 89.0625C113.154 89.1218 113.023 89.3495 113.082 89.5709C113.141 89.7924 113.369 89.9238 113.591 89.8645Z" fill="url(#paint25_linear_5261_20737)"/>
<path d="M114.159 89.8152C114.38 89.7558 114.512 89.5282 114.452 89.3067C114.393 89.0852 114.165 88.9538 113.944 89.0132C113.723 89.0725 113.591 89.3001 113.65 89.5216C113.71 89.7431 113.937 89.8745 114.159 89.8152Z" fill="url(#paint26_linear_5261_20737)"/>
<path fill-rule="evenodd" clip-rule="evenodd" d="M96.8722 110.471C97.3067 109.027 98.5297 107.884 100.541 107.042C105.868 104.813 102.724 98.8876 110.097 97.9343C117.47 96.981 125.866 93.4072 131.499 92.3464L120.309 107.573L98.4129 113.98C97.8497 112.844 97.3351 111.673 96.8722 110.471Z" fill="url(#paint27_linear_5261_20737)"/>
<path fill-rule="evenodd" clip-rule="evenodd" d="M97.7559 112.591C118.381 93.1859 144.598 84.9476 176.41 87.8763C180.383 109.004 167.454 129.951 146.344 135.607C126.403 140.95 105.962 130.827 97.7559 112.591Z" fill="url(#paint28_linear_5261_20737)"/>
<path fill-rule="evenodd" clip-rule="evenodd" d="M128.832 136.476C132.172 133.1 133.494 127.421 132.765 120.398C131.066 104.015 135.97 96.7216 156.927 97.0489C169.666 97.2479 176.25 94.7213 176.678 89.4692C179.728 110.048 166.924 130.093 146.345 135.607C140.441 137.189 134.493 137.415 128.832 136.476V136.476Z" fill="url(#paint29_linear_5261_20737)"/>
<path fill-rule="evenodd" clip-rule="evenodd" d="M107.117 125.719C106.457 120.858 109.059 116.565 114.925 112.842C127.126 105.097 127.294 92.4187 140.205 94.5114C148.813 95.9065 154.903 96.7399 158.475 97.0115C142.482 96.802 134.306 101.102 133.947 109.912C133.498 120.951 134.751 132.361 130.143 136.673C121.479 135.521 113.417 131.647 107.117 125.719Z" fill="url(#paint30_linear_5261_20737)"/>
<path fill-rule="evenodd" clip-rule="evenodd" d="M130.106 136.667C140.548 135.006 139.022 124.22 146.233 122.287C153.46 120.351 163.082 119.784 164.272 110.306C164.975 104.713 169.259 99.6675 177.124 95.1699C177.287 113.641 165.015 130.604 146.345 135.607C140.882 137.071 135.382 137.374 130.106 136.667L130.106 136.667Z" fill="url(#paint31_linear_5261_20737)"/>
<path fill-rule="evenodd" clip-rule="evenodd" d="M100.585 77.6506C100.854 75.3645 101.881 74.1663 103.665 74.056C106.342 73.8905 106.199 76.3396 108.942 73.9875C111.684 71.6354 114.888 73.8182 114.888 73.8182C114.888 73.8182 110.12 75.0957 100.585 77.6506Z" fill="url(#paint32_linear_5261_20737)"/>
<path fill-rule="evenodd" clip-rule="evenodd" d="M146.409 59.1657C135.589 62.0649 130.179 63.5144 130.179 63.5144C130.179 63.5144 132.089 59.5517 136.118 60.3072C140.148 61.0627 138.618 58.7368 141.342 57.3808C143.159 56.4767 144.847 57.0717 146.409 59.1657Z" fill="url(#paint33_linear_5261_20737)"/>
</g>
</g>
<g filter="url(#filter1_d_5261_20737)">
<rect x="48" y="36" width="128" height="160" rx="24" transform="rotate(-15 48 36)" fill="#FCFCFD"/>
<rect x="48.6124" y="36.3536" width="127" height="159" rx="23.5" transform="rotate(-15 48.6124 36.3536)" stroke="#F4F5F6"/>
</g>
<rect x="96" y="67" width="64" height="64" rx="32" fill="#58C27D"/>
<path fill-rule="evenodd" clip-rule="evenodd" d="M123 89C122.448 89 122 89.4477 122 90V91H121C119.343 91 118 92.3431 118 94V106C118 107.657 119.343 109 121 109H135C136.657 109 138 107.657 138 106V94C138 92.3431 136.657 91 135 91H134V90C134 89.4477 133.552 89 133 89C132.448 89 132 89.4477 132 90V91H124V90C124 89.4477 123.552 89 123 89ZM125 100C125 99.4477 125.448 99 126 99H133C133.552 99 134 99.4477 134 100C134 100.552 133.552 101 133 101H126C125.448 101 125 100.552 125 100ZM122 104C122 103.448 122.448 103 123 103H129C129.552 103 130 103.448 130 104C130 104.552 129.552 105 129 105H123C122.448 105 122 104.552 122 104Z" fill="#FCFCFD"/>
<rect width="8" height="8" rx="2" transform="matrix(0.939693 -0.34202 -0.34202 -0.939693 220.104 35.3804)" fill="#FFD166"/>
<rect width="12" height="12" rx="2" transform="matrix(0.939693 -0.34202 -0.34202 -0.939693 21.1035 206.38)" fill="#CDB4DB"/>
<defs>
<filter id="filter0_d_5261_20737" x="36.8047" y="3.65405" width="190.875" height="271.402" filterUnits="userSpaceOnUse" color-interpolation-filters="sRGB">
<feFlood flood-opacity="0" result="BackgroundImageFix"/>
<feColorMatrix in="SourceAlpha" type="matrix" values="0 0 0 0 0 0 0 0 0 0 0 0 0 0 0 0 0 0 127 0" result="hardAlpha"/>
<feMorphology radius="48" operator="erode" in="SourceAlpha" result="effect1_dropShadow_5261_20737"/>
<feOffset dy="64"/>
<feGaussianBlur stdDeviation="32"/>
<feColorMatrix type="matrix" values="0 0 0 0 0.0583333 0 0 0 0 0.0583333 0 0 0 0 0.0583333 0 0 0 0.08 0"/>
<feBlend mode="multiply" in2="BackgroundImageFix" result="effect1_dropShadow_5261_20737"/>
<feBlend mode="normal" in="SourceGraphic" in2="effect1_dropShadow_5261_20737" result="shape"/>
</filter>
<filter id="filter1_d_5261_20737" x="40" y="2.87109" width="181.049" height="235.677" filterUnits="userSpaceOnUse" color-interpolation-filters="sRGB">
<feFlood flood-opacity="0" result="BackgroundImageFix"/>
<feColorMatrix in="SourceAlpha" type="matrix" values="0 0 0 0 0 0 0 0 0 0 0 0 0 0 0 0 0 0 127 0" result="hardAlpha"/>
<feMorphology radius="24" operator="erode" in="SourceAlpha" result="effect1_dropShadow_5261_20737"/>
<feOffset dy="40"/>
<feGaussianBlur stdDeviation="16"/>
<feColorMatrix type="matrix" values="0 0 0 0 0.0583333 0 0 0 0 0.0583333 0 0 0 0 0.0583333 0 0 0 0.12 0"/>
<feBlend mode="multiply" in2="BackgroundImageFix" result="effect1_dropShadow_5261_20737"/>
<feBlend mode="normal" in="SourceGraphic" in2="effect1_dropShadow_5261_20737" result="shape"/>
</filter>
<linearGradient id="paint0_linear_5261_20737" x1="115.445" y1="57.9273" x2="127.012" y2="132.405" gradientUnits="userSpaceOnUse">
<stop stop-color="#EEFFFD"/>
<stop offset="1" stop-color="#B7FFF6"/>
</linearGradient>
<linearGradient id="paint1_linear_5261_20737" x1="123.677" y1="88.6495" x2="125.383" y2="91.9153" gradientUnits="userSpaceOnUse">
<stop stop-color="#EEFFFD"/>
<stop offset="1" stop-color="#B7FFF6"/>
</linearGradient>
<linearGradient id="paint2_linear_5261_20737" x1="149.973" y1="73.2832" x2="148.614" y2="88.29" gradientUnits="userSpaceOnUse">
<stop stop-color="#30A0DE"/>
<stop offset="1" stop-color="#194383"/>
</linearGradient>
<linearGradient id="paint3_linear_5261_20737" x1="130.867" y1="77.5769" x2="134.204" y2="98.8667" gradientUnits="userSpaceOnUse">
<stop stop-color="#F9BB49"/>
<stop offset="1" stop-color="#F08523"/>
</linearGradient>
<linearGradient id="paint4_linear_5261_20737" x1="132.09" y1="82.4069" x2="134.314" y2="96.6001" gradientUnits="userSpaceOnUse">
<stop stop-color="#F9BB49"/>
<stop offset="1" stop-color="#F08523"/>
</linearGradient>
<linearGradient id="paint5_linear_5261_20737" x1="146.116" y1="75.7677" x2="147.244" y2="90.4945" gradientUnits="userSpaceOnUse">
<stop stop-color="#30A0DE"/>
<stop offset="1" stop-color="#194383"/>
</linearGradient>
<linearGradient id="paint6_linear_5261_20737" x1="101.936" y1="103.408" x2="96.8788" y2="89.3714" gradientUnits="userSpaceOnUse">
<stop stop-color="#DB593D"/>
<stop offset="1" stop-color="#F88461"/>
</linearGradient>
<linearGradient id="paint7_linear_5261_20737" x1="101.481" y1="98.3475" x2="100.167" y2="88.8751" gradientUnits="userSpaceOnUse">
<stop stop-color="#CD4C30"/>
<stop offset="1" stop-color="#F88461" stop-opacity="0"/>
</linearGradient>
<linearGradient id="paint8_linear_5261_20737" x1="102.228" y1="93.458" x2="102.187" y2="90.0507" gradientUnits="userSpaceOnUse">
<stop stop-color="#13DBBF"/>
<stop offset="1" stop-color="#08B58B"/>
</linearGradient>
<linearGradient id="paint9_linear_5261_20737" x1="101.104" y1="89.4648" x2="101.639" y2="88.4615" gradientUnits="userSpaceOnUse">
<stop stop-color="#13DBBF"/>
<stop offset="1" stop-color="#08B58B"/>
</linearGradient>
<linearGradient id="paint10_linear_5261_20737" x1="104.448" y1="86.0859" x2="101.521" y2="89.0587" gradientUnits="userSpaceOnUse">
<stop stop-color="#13DBBF"/>
<stop offset="1" stop-color="#08B58B"/>
</linearGradient>
<linearGradient id="paint11_linear_5261_20737" x1="97.924" y1="90.6358" x2="98.0623" y2="87.6123" gradientUnits="userSpaceOnUse">
<stop stop-color="#13DBBF"/>
<stop offset="1" stop-color="#08B58B"/>
</linearGradient>
<linearGradient id="paint12_linear_5261_20737" x1="101.369" y1="90.4579" x2="97.9066" y2="88.6159" gradientUnits="userSpaceOnUse">
<stop stop-color="#13DBBF"/>
<stop offset="1" stop-color="#08B58B"/>
</linearGradient>
<linearGradient id="paint13_linear_5261_20737" x1="99.7639" y1="89.7837" x2="100.529" y2="89.9416" gradientUnits="userSpaceOnUse">
<stop stop-color="#E3F35C"/>
<stop offset="1" stop-color="#C3E22F"/>
</linearGradient>
<linearGradient id="paint14_linear_5261_20737" x1="100.334" y1="89.774" x2="101.099" y2="89.9318" gradientUnits="userSpaceOnUse">
<stop stop-color="#E3F35C"/>
<stop offset="1" stop-color="#C3E22F"/>
</linearGradient>
<linearGradient id="paint15_linear_5261_20737" x1="156.37" y1="79.3837" x2="154.238" y2="95.702" gradientUnits="userSpaceOnUse">
<stop stop-color="#30A0DE"/>
<stop offset="1" stop-color="#194383"/>
</linearGradient>
<linearGradient id="paint16_linear_5261_20737" x1="156.472" y1="83.1581" x2="154.54" y2="95.6544" gradientUnits="userSpaceOnUse">
<stop stop-color="#30A0DE"/>
<stop offset="1" stop-color="#194383"/>
</linearGradient>
<linearGradient id="paint17_linear_5261_20737" x1="131.44" y1="96.6242" x2="113.499" y2="112.445" gradientUnits="userSpaceOnUse">
<stop stop-color="#68C179"/>
<stop offset="1" stop-color="#25A062"/>
</linearGradient>
<linearGradient id="paint18_linear_5261_20737" x1="115.772" y1="102.905" x2="110.868" y2="88.8049" gradientUnits="userSpaceOnUse">
<stop stop-color="#DB593D"/>
<stop offset="1" stop-color="#F88461"/>
</linearGradient>
<linearGradient id="paint19_linear_5261_20737" x1="115.254" y1="97.8438" x2="113.737" y2="88.367" gradientUnits="userSpaceOnUse">
<stop stop-color="#CD4C30"/>
<stop offset="1" stop-color="#F88461" stop-opacity="0"/>
</linearGradient>
<linearGradient id="paint20_linear_5261_20737" x1="115.369" y1="92.9895" x2="115.378" y2="89.6304" gradientUnits="userSpaceOnUse">
<stop stop-color="#13DBBF"/>
<stop offset="1" stop-color="#08B58B"/>
</linearGradient>
<linearGradient id="paint21_linear_5261_20737" x1="114.422" y1="88.5121" x2="114.895" y2="87.4805" gradientUnits="userSpaceOnUse">
<stop stop-color="#13DBBF"/>
<stop offset="1" stop-color="#08B58B"/>
</linearGradient>
<linearGradient id="paint22_linear_5261_20737" x1="116.689" y1="84.6252" x2="114.007" y2="88.073" gradientUnits="userSpaceOnUse">
<stop stop-color="#13DBBF"/>
<stop offset="1" stop-color="#08B58B"/>
</linearGradient>
<linearGradient id="paint23_linear_5261_20737" x1="110.968" y1="90.0499" x2="111.142" y2="87.4691" gradientUnits="userSpaceOnUse">
<stop stop-color="#13DBBF"/>
<stop offset="1" stop-color="#08B58B"/>
</linearGradient>
<linearGradient id="paint24_linear_5261_20737" x1="114.668" y1="90.4183" x2="111.148" y2="88.4355" gradientUnits="userSpaceOnUse">
<stop stop-color="#13DBBF"/>
<stop offset="1" stop-color="#08B58B"/>
</linearGradient>
<linearGradient id="paint25_linear_5261_20737" x1="112.99" y1="89.4568" x2="113.756" y2="89.6147" gradientUnits="userSpaceOnUse">
<stop stop-color="#E3F35C"/>
<stop offset="1" stop-color="#C3E22F"/>
</linearGradient>
<linearGradient id="paint26_linear_5261_20737" x1="113.559" y1="89.4075" x2="114.324" y2="89.5654" gradientUnits="userSpaceOnUse">
<stop stop-color="#E3F35C"/>
<stop offset="1" stop-color="#C3E22F"/>
</linearGradient>
<linearGradient id="paint27_linear_5261_20737" x1="129.824" y1="98.4069" x2="113.933" y2="107.306" gradientUnits="userSpaceOnUse">
<stop stop-color="#68C179"/>
<stop offset="1" stop-color="#25A062"/>
</linearGradient>
<linearGradient id="paint28_linear_5261_20737" x1="141.229" y1="102.494" x2="136.776" y2="128.797" gradientUnits="userSpaceOnUse">
<stop stop-color="#77EBFF"/>
<stop offset="1" stop-color="#4D86DE"/>
</linearGradient>
<linearGradient id="paint29_linear_5261_20737" x1="178.392" y1="100.499" x2="142.527" y2="152.953" gradientUnits="userSpaceOnUse">
<stop stop-color="#91F6FF"/>
<stop offset="1" stop-color="#4D86DE"/>
</linearGradient>
<linearGradient id="paint30_linear_5261_20737" x1="136.757" y1="98.9419" x2="131.051" y2="138.636" gradientUnits="userSpaceOnUse">
<stop stop-color="#77EBFF"/>
<stop offset="1" stop-color="#4D86DE"/>
</linearGradient>
<linearGradient id="paint31_linear_5261_20737" x1="161.673" y1="111.359" x2="138.531" y2="150.485" gradientUnits="userSpaceOnUse">
<stop stop-color="#91F6FF"/>
<stop offset="1" stop-color="#4D86DE"/>
</linearGradient>
<linearGradient id="paint32_linear_5261_20737" x1="109.172" y1="73.8765" x2="100.961" y2="79.3662" gradientUnits="userSpaceOnUse">
<stop stop-color="#C1FFF7"/>
<stop offset="1" stop-color="#93E9DE"/>
</linearGradient>
<linearGradient id="paint33_linear_5261_20737" x1="139.923" y1="59.2318" x2="130.606" y2="65.4612" gradientUnits="userSpaceOnUse">
<stop stop-color="#C1FFF7"/>
<stop offset="1" stop-color="#93E9DE"/>
</linearGradient>
<clipPath id="clip0_5261_20737">
<rect x="52.8047" y="34.7124" width="120" height="166" rx="24" transform="rotate(-15 52.8047 34.7124)" fill="white"/>
</clipPath>
</defs>
</svg>
