<svg width="256" height="269" viewBox="0 0 256 269" fill="none" xmlns="http://www.w3.org/2000/svg">
<path d="M171.709 50.4589C186.296 59.648 198.496 72.4628 205.511 88.2114C212.401 103.678 212.23 120.868 210.58 137.719C208.898 154.906 205.912 172.233 195.91 186.31C185.477 200.993 170.743 212.754 153.519 218.023C136.388 223.264 118.23 220.02 100.93 215.368C83.6175 210.713 65.5759 205.025 54.0643 191.282C42.7164 177.734 42.2601 158.929 39.092 141.543C35.8725 123.874 29.5262 105.854 35.4056 88.884C41.4497 71.4388 55.6125 57.8421 71.4046 48.2778C86.7447 38.9872 104.745 35.6403 122.675 36.0302C140.061 36.4082 156.995 41.1901 171.709 50.4589Z" fill="#F4F5F6"/>
<g filter="url(#filter0_d_5261_20788)">
<g clip-path="url(#clip0_5261_20788)">
<rect width="120" height="166" rx="24" transform="matrix(-0.965926 -0.258819 -0.258819 0.965926 208.244 34.7124)" fill="#FCFCFD"/>
<path d="M114.705 135.607C92.5576 129.673 79.4146 106.909 85.3489 84.7616C91.2831 62.6147 114.047 49.4717 136.194 55.406C158.341 61.3402 171.484 84.1045 165.55 106.251C159.616 128.398 136.851 141.541 114.705 135.607Z" fill="url(#paint0_linear_5261_20788)"/>
<path fill-rule="evenodd" clip-rule="evenodd" d="M166.877 92.6518C162.289 93.6909 157.646 91.9277 152.948 87.3621C145.154 79.7876 143.474 75.7385 132.782 80.1141C122.09 84.4898 117.258 76.4144 111.437 69.4666C108.905 66.4454 104.892 63.5396 100.559 62.2782C93.3629 67.6608 87.8548 75.4082 85.3486 84.7615C83.4238 91.9452 83.5061 99.1938 85.2517 105.912C121.883 111.679 147.103 115.414 160.909 117.117C162.919 113.815 164.499 110.174 165.55 106.251C166.771 101.694 167.184 97.1097 166.877 92.6518Z" fill="url(#paint1_linear_5261_20788)"/>
<path fill-rule="evenodd" clip-rule="evenodd" d="M99.8651 77.4062L113.547 71.8284L117.569 68.1285L121.227 72.4883L125.106 90.9836L95.6635 85.3822L99.8651 77.4062Z" fill="url(#paint2_linear_5261_20788)"/>
<path opacity="0.1" d="M122.338 106.85C114.254 104.684 109.457 96.3753 111.623 88.2917C113.789 80.2081 122.098 75.4109 130.182 77.5769C138.265 79.7429 143.062 88.0519 140.896 96.1355C138.73 104.219 130.421 109.016 122.338 106.85Z" fill="url(#paint3_linear_5261_20788)"/>
<path d="M123.73 101.922C118.341 100.478 115.143 94.9392 116.587 89.5501C118.031 84.161 123.57 80.9629 128.959 82.4069C134.348 83.8509 137.546 89.3902 136.102 94.7793C134.658 100.168 129.119 103.366 123.73 101.922Z" fill="url(#paint4_linear_5261_20788)"/>
<path fill-rule="evenodd" clip-rule="evenodd" d="M110.193 83.5361L117.007 75.9711L117.569 68.1285L121.227 72.4883L125.106 90.9836L95.6635 85.3822L110.193 83.5361Z" fill="url(#paint5_linear_5261_20788)"/>
<path fill-rule="evenodd" clip-rule="evenodd" d="M156.132 109.135C159.863 102.222 161.21 95.7929 160.173 89.8479L160.669 89.6045C162.772 95.2885 162.674 101.301 160.378 107.643L157.972 108.734L156.132 109.135Z" fill="url(#paint6_linear_5261_20788)"/>
<path fill-rule="evenodd" clip-rule="evenodd" d="M156.131 109.136C159.862 102.222 161.208 95.793 160.171 89.8481C161.729 95.4265 160.996 101.722 157.97 108.734C157.97 108.734 157.357 108.868 156.131 109.136Z" fill="url(#paint7_linear_5261_20788)"/>
<path fill-rule="evenodd" clip-rule="evenodd" d="M160.595 89.9654C158.893 90.6961 158.015 91.5995 157.959 92.6757C157.302 92.1088 157.066 91.4829 157.249 90.7979C157.525 89.7703 159.02 88.9008 160.512 89.6949L160.549 89.8277L160.595 89.9654Z" fill="url(#paint8_linear_5261_20788)"/>
<path fill-rule="evenodd" clip-rule="evenodd" d="M160.818 89.5504C158.93 87.6565 157.179 87.49 155.565 89.0509C157.006 88.8991 158.101 89.004 158.851 89.3658C159.601 89.7275 160.245 89.8525 160.781 89.7409L160.818 89.5504Z" fill="url(#paint9_linear_5261_20788)"/>
<path fill-rule="evenodd" clip-rule="evenodd" d="M160.561 90.0173C160.833 88.5644 160.686 87.4852 160.121 86.7798C159.556 86.0744 158.493 85.944 156.934 86.3885C158.638 87.0428 159.616 87.8594 159.868 88.8383C160.12 89.8171 160.351 90.2102 160.561 90.0173Z" fill="url(#paint10_linear_5261_20788)"/>
<path fill-rule="evenodd" clip-rule="evenodd" d="M160.76 89.6173C162.193 88.1146 163.354 87.8117 164.244 88.7086C164.214 87.6421 163.771 87.0056 162.915 86.7989C162.059 86.5923 161.231 87.5176 160.433 89.5749L160.76 89.6173Z" fill="url(#paint11_linear_5261_20788)"/>
<path fill-rule="evenodd" clip-rule="evenodd" d="M160.69 89.9138C162.433 89.8274 163.397 90.5361 163.584 92.0398C164.366 91.0812 164.342 90.199 163.514 89.393C162.685 88.587 161.623 88.6849 160.327 89.6866L160.69 89.9138Z" fill="url(#paint12_linear_5261_20788)"/>
<path d="M160.685 90.1914C160.463 90.132 160.332 89.9044 160.391 89.6829C160.451 89.4615 160.678 89.33 160.9 89.3894C161.121 89.4487 161.253 89.6764 161.193 89.8978C161.134 90.1193 160.906 90.2507 160.685 90.1914Z" fill="url(#paint13_linear_5261_20788)"/>
<path d="M160.115 90.1816C159.893 90.1223 159.762 89.8946 159.821 89.6732C159.88 89.4517 160.108 89.3203 160.329 89.3796C160.551 89.439 160.682 89.6666 160.623 89.8881C160.564 90.1095 160.336 90.241 160.115 90.1816Z" fill="url(#paint14_linear_5261_20788)"/>
<path fill-rule="evenodd" clip-rule="evenodd" d="M94.7706 67.5247C90.4286 72.2775 87.131 78.1139 85.3498 84.7615C84.5717 87.6655 84.1215 90.5801 83.9767 93.466C87.4016 94.2763 89.5573 94.4881 90.444 94.1014C92.1487 93.358 104.138 92.6285 126.413 91.9129C119.085 86.4364 113.862 82.649 110.743 80.5509L102.738 69.7133L98.0886 70.3989L94.7706 67.5247Z" fill="url(#paint15_linear_5261_20788)"/>
<path fill-rule="evenodd" clip-rule="evenodd" d="M93.9658 68.4311C90.0204 73.0123 87.0185 78.5306 85.349 84.7616C84.5708 87.6656 84.1207 90.5802 83.9759 93.4661C87.4008 94.2764 89.5565 94.4882 90.4431 94.1015C92.1479 93.3581 104.138 92.6286 126.412 91.913L107.344 83.1591L94.8857 81.3078L97.3386 75.0188L93.9658 68.4311Z" fill="url(#paint16_linear_5261_20788)"/>
<path fill-rule="evenodd" clip-rule="evenodd" d="M166.706 100.193C156.942 95.7059 144.535 93.0787 129.485 92.3113C144.589 102.056 155.084 110.292 160.969 117.02C162.951 113.744 164.51 110.136 165.551 106.251C166.092 104.233 166.474 102.209 166.706 100.193Z" fill="url(#paint17_linear_5261_20788)"/>
<path fill-rule="evenodd" clip-rule="evenodd" d="M141.567 108.437L143.431 108.164L145.907 107.244C148.64 101.078 149.156 95.0864 147.456 89.2697L146.943 89.4779C147.564 95.4807 145.772 101.8 141.567 108.437Z" fill="url(#paint18_linear_5261_20788)"/>
<path fill-rule="evenodd" clip-rule="evenodd" d="M141.567 108.437C142.809 108.255 143.43 108.164 143.43 108.164C146.937 101.38 148.108 95.1515 146.943 89.478C147.563 95.4808 145.771 101.8 141.567 108.437Z" fill="url(#paint19_linear_5261_20788)"/>
<path fill-rule="evenodd" clip-rule="evenodd" d="M147.358 89.6246L147.321 89.484L147.294 89.349C145.861 88.4527 144.308 89.2158 143.962 90.2216C143.731 90.8922 143.923 91.5331 144.539 92.1444C144.669 91.0747 145.609 90.2348 147.358 89.6246Z" fill="url(#paint20_linear_5261_20788)"/>
<path fill-rule="evenodd" clip-rule="evenodd" d="M147.326 89.3029C146.115 86.9182 144.501 86.2187 142.484 87.2045C143.901 87.5053 144.911 87.9437 145.512 88.5195C146.114 89.0953 146.687 89.413 147.232 89.4726L147.326 89.3029Z" fill="url(#paint21_linear_5261_20788)"/>
<path fill-rule="evenodd" clip-rule="evenodd" d="M147.343 89.5704C147.911 88.2058 147.992 87.1197 147.586 86.3122C147.179 85.5047 146.167 85.1562 144.55 85.2668C146.081 86.2612 146.868 87.2633 146.911 88.2732C146.953 89.283 147.098 89.7154 147.343 89.5704Z" fill="url(#paint22_linear_5261_20788)"/>
<path fill-rule="evenodd" clip-rule="evenodd" d="M147.547 89.2887C149.081 87.8897 150.261 87.6685 151.086 88.6253C151.13 87.5593 150.733 86.8934 149.893 86.6275C149.053 86.3617 148.164 87.227 147.223 89.2236L147.547 89.2887Z" fill="url(#paint23_linear_5261_20788)"/>
<path fill-rule="evenodd" clip-rule="evenodd" d="M147.456 89.5796C149.2 89.615 150.113 90.3892 150.194 91.9023C151.041 91.0006 151.079 90.1188 150.309 89.257C149.539 88.3952 148.472 88.4188 147.11 89.3277L147.456 89.5796Z" fill="url(#paint24_linear_5261_20788)"/>
<path d="M147.458 89.8645C147.237 89.8051 147.105 89.5775 147.165 89.356C147.224 89.1346 147.452 89.0031 147.673 89.0625C147.895 89.1218 148.026 89.3495 147.967 89.5709C147.907 89.7924 147.68 89.9238 147.458 89.8645Z" fill="url(#paint25_linear_5261_20788)"/>
<path d="M146.89 89.8152C146.668 89.7558 146.537 89.5282 146.596 89.3067C146.656 89.0852 146.883 88.9538 147.105 89.0132C147.326 89.0725 147.458 89.3001 147.398 89.5216C147.339 89.7431 147.111 89.8745 146.89 89.8152Z" fill="url(#paint26_linear_5261_20788)"/>
<path fill-rule="evenodd" clip-rule="evenodd" d="M164.177 110.471C163.742 109.027 162.519 107.884 160.508 107.042C155.181 104.813 158.325 98.8876 150.952 97.9343C143.579 96.981 135.183 93.4072 129.549 92.3464L140.739 107.573L162.636 113.98C163.199 112.844 163.714 111.673 164.177 110.471Z" fill="url(#paint27_linear_5261_20788)"/>
<path fill-rule="evenodd" clip-rule="evenodd" d="M163.293 112.591C142.668 93.1859 116.45 84.9476 84.6393 87.8763C80.6656 109.004 93.5949 129.951 114.704 135.607C134.645 140.95 155.087 130.827 163.293 112.591Z" fill="url(#paint28_linear_5261_20788)"/>
<path fill-rule="evenodd" clip-rule="evenodd" d="M132.217 136.476C128.877 133.1 127.555 127.421 128.283 120.398C129.983 104.015 125.079 96.7216 104.122 97.0489C91.3825 97.2479 84.7988 94.7213 84.3711 89.4692C81.3205 110.048 94.1253 130.093 114.704 135.607C120.608 137.189 126.556 137.415 132.217 136.476Z" fill="url(#paint29_linear_5261_20788)"/>
<path fill-rule="evenodd" clip-rule="evenodd" d="M153.931 125.719C154.592 120.858 151.99 116.565 146.124 112.842C133.922 105.097 133.755 92.4187 120.844 94.5114C112.236 95.9065 106.146 96.7399 102.574 97.0115C118.567 96.802 126.743 101.102 127.102 109.912C127.551 120.951 126.298 132.361 130.906 136.673C139.57 135.521 147.632 131.647 153.931 125.719Z" fill="url(#paint30_linear_5261_20788)"/>
<path fill-rule="evenodd" clip-rule="evenodd" d="M130.943 136.667C120.501 135.006 122.027 124.22 114.816 122.287C107.589 120.351 97.9671 119.784 96.7766 110.306C96.0741 104.713 91.7902 99.6675 83.9248 95.1699C83.7623 113.641 96.0336 130.604 114.704 135.607C120.167 137.071 125.667 137.374 130.943 136.667L130.943 136.667Z" fill="url(#paint31_linear_5261_20788)"/>
<path fill-rule="evenodd" clip-rule="evenodd" d="M160.464 77.6506C160.195 75.3645 159.168 74.1663 157.384 74.056C154.707 73.8905 154.85 76.3396 152.107 73.9875C149.365 71.6354 146.161 73.8182 146.161 73.8182C146.161 73.8182 150.929 75.0957 160.464 77.6506Z" fill="url(#paint32_linear_5261_20788)"/>
<path fill-rule="evenodd" clip-rule="evenodd" d="M114.64 59.1657C125.46 62.0649 130.87 63.5144 130.87 63.5144C130.87 63.5144 128.96 59.5517 124.931 60.3072C120.901 61.0627 122.431 58.7368 119.706 57.3808C117.89 56.4767 116.202 57.0717 114.64 59.1657Z" fill="url(#paint33_linear_5261_20788)"/>
</g>
</g>
<g filter="url(#filter1_d_5261_20788)">
<rect width="128" height="160" rx="24" transform="matrix(-0.965926 -0.258819 -0.258819 0.965926 213.049 36)" fill="#FCFCFD"/>
<rect x="-0.612372" y="0.353553" width="127" height="159" rx="23.5" transform="matrix(-0.965926 -0.258819 -0.258819 0.965926 211.936 35.8536)" stroke="#F4F5F6"/>
</g>
<rect x="96" y="67" width="64" height="64" rx="32" fill="#92A5EF"/>
<path fill-rule="evenodd" clip-rule="evenodd" d="M128 109C133.523 109 138 104.523 138 99C138 93.4772 133.523 89 128 89C122.477 89 118 93.4772 118 99C118 104.523 122.477 109 128 109ZM133.707 96.7071C134.098 96.3166 134.098 95.6834 133.707 95.2929C133.317 94.9024 132.683 94.9024 132.293 95.2929L127 100.586L124.707 98.2929C124.317 97.9024 123.683 97.9024 123.293 98.2929C122.902 98.6834 122.902 99.3166 123.293 99.7071L126.293 102.707C126.683 103.098 127.317 103.098 127.707 102.707L133.707 96.7071Z" fill="#FCFCFD"/>
<rect width="12" height="12" rx="4" transform="matrix(-0.965926 -0.258819 -0.258819 0.965926 250.697 84.1055)" fill="#FABDC1"/>
<rect width="4" height="4" rx="2" transform="matrix(0.939693 -0.34202 -0.34202 -0.939693 22.7363 175.254)" fill="#9AC8FF"/>
<rect width="8" height="8" rx="2" transform="matrix(0.939693 -0.34202 -0.34202 -0.939693 32.7363 24.2539)" fill="#92A5EF"/>
<defs>
<filter id="filter0_d_5261_20788" x="33.3691" y="3.65405" width="190.875" height="271.402" filterUnits="userSpaceOnUse" color-interpolation-filters="sRGB">
<feFlood flood-opacity="0" result="BackgroundImageFix"/>
<feColorMatrix in="SourceAlpha" type="matrix" values="0 0 0 0 0 0 0 0 0 0 0 0 0 0 0 0 0 0 127 0" result="hardAlpha"/>
<feMorphology radius="48" operator="erode" in="SourceAlpha" result="effect1_dropShadow_5261_20788"/>
<feOffset dy="64"/>
<feGaussianBlur stdDeviation="32"/>
<feColorMatrix type="matrix" values="0 0 0 0 0.0583333 0 0 0 0 0.0583333 0 0 0 0 0.0583333 0 0 0 0.08 0"/>
<feBlend mode="multiply" in2="BackgroundImageFix" result="effect1_dropShadow_5261_20788"/>
<feBlend mode="normal" in="SourceGraphic" in2="effect1_dropShadow_5261_20788" result="shape"/>
</filter>
<filter id="filter1_d_5261_20788" x="40" y="2.87109" width="181.049" height="235.677" filterUnits="userSpaceOnUse" color-interpolation-filters="sRGB">
<feFlood flood-opacity="0" result="BackgroundImageFix"/>
<feColorMatrix in="SourceAlpha" type="matrix" values="0 0 0 0 0 0 0 0 0 0 0 0 0 0 0 0 0 0 127 0" result="hardAlpha"/>
<feMorphology radius="24" operator="erode" in="SourceAlpha" result="effect1_dropShadow_5261_20788"/>
<feOffset dy="40"/>
<feGaussianBlur stdDeviation="16"/>
<feColorMatrix type="matrix" values="0 0 0 0 0.0583333 0 0 0 0 0.0583333 0 0 0 0 0.0583333 0 0 0 0.12 0"/>
<feBlend mode="multiply" in2="BackgroundImageFix" result="effect1_dropShadow_5261_20788"/>
<feBlend mode="normal" in="SourceGraphic" in2="effect1_dropShadow_5261_20788" result="shape"/>
</filter>
<linearGradient id="paint0_linear_5261_20788" x1="145.604" y1="57.9273" x2="134.037" y2="132.405" gradientUnits="userSpaceOnUse">
<stop stop-color="#EEFFFD"/>
<stop offset="1" stop-color="#B7FFF6"/>
</linearGradient>
<linearGradient id="paint1_linear_5261_20788" x1="137.372" y1="88.6495" x2="135.666" y2="91.9153" gradientUnits="userSpaceOnUse">
<stop stop-color="#EEFFFD"/>
<stop offset="1" stop-color="#B7FFF6"/>
</linearGradient>
<linearGradient id="paint2_linear_5261_20788" x1="111.076" y1="73.2832" x2="112.435" y2="88.29" gradientUnits="userSpaceOnUse">
<stop stop-color="#30A0DE"/>
<stop offset="1" stop-color="#194383"/>
</linearGradient>
<linearGradient id="paint3_linear_5261_20788" x1="130.182" y1="77.5769" x2="126.845" y2="98.8667" gradientUnits="userSpaceOnUse">
<stop stop-color="#F9BB49"/>
<stop offset="1" stop-color="#F08523"/>
</linearGradient>
<linearGradient id="paint4_linear_5261_20788" x1="128.959" y1="82.4069" x2="126.735" y2="96.6001" gradientUnits="userSpaceOnUse">
<stop stop-color="#F9BB49"/>
<stop offset="1" stop-color="#F08523"/>
</linearGradient>
<linearGradient id="paint5_linear_5261_20788" x1="114.933" y1="75.7677" x2="113.805" y2="90.4945" gradientUnits="userSpaceOnUse">
<stop stop-color="#30A0DE"/>
<stop offset="1" stop-color="#194383"/>
</linearGradient>
<linearGradient id="paint6_linear_5261_20788" x1="159.113" y1="103.408" x2="164.17" y2="89.3714" gradientUnits="userSpaceOnUse">
<stop stop-color="#DB593D"/>
<stop offset="1" stop-color="#F88461"/>
</linearGradient>
<linearGradient id="paint7_linear_5261_20788" x1="159.568" y1="98.3475" x2="160.882" y2="88.8751" gradientUnits="userSpaceOnUse">
<stop stop-color="#CD4C30"/>
<stop offset="1" stop-color="#F88461" stop-opacity="0"/>
</linearGradient>
<linearGradient id="paint8_linear_5261_20788" x1="158.821" y1="93.458" x2="158.862" y2="90.0507" gradientUnits="userSpaceOnUse">
<stop stop-color="#13DBBF"/>
<stop offset="1" stop-color="#08B58B"/>
</linearGradient>
<linearGradient id="paint9_linear_5261_20788" x1="159.945" y1="89.4648" x2="159.41" y2="88.4615" gradientUnits="userSpaceOnUse">
<stop stop-color="#13DBBF"/>
<stop offset="1" stop-color="#08B58B"/>
</linearGradient>
<linearGradient id="paint10_linear_5261_20788" x1="156.601" y1="86.0859" x2="159.528" y2="89.0587" gradientUnits="userSpaceOnUse">
<stop stop-color="#13DBBF"/>
<stop offset="1" stop-color="#08B58B"/>
</linearGradient>
<linearGradient id="paint11_linear_5261_20788" x1="163.125" y1="90.6358" x2="162.986" y2="87.6123" gradientUnits="userSpaceOnUse">
<stop stop-color="#13DBBF"/>
<stop offset="1" stop-color="#08B58B"/>
</linearGradient>
<linearGradient id="paint12_linear_5261_20788" x1="159.68" y1="90.4579" x2="163.142" y2="88.6159" gradientUnits="userSpaceOnUse">
<stop stop-color="#13DBBF"/>
<stop offset="1" stop-color="#08B58B"/>
</linearGradient>
<linearGradient id="paint13_linear_5261_20788" x1="161.285" y1="89.7837" x2="160.52" y2="89.9416" gradientUnits="userSpaceOnUse">
<stop stop-color="#E3F35C"/>
<stop offset="1" stop-color="#C3E22F"/>
</linearGradient>
<linearGradient id="paint14_linear_5261_20788" x1="160.715" y1="89.774" x2="159.949" y2="89.9318" gradientUnits="userSpaceOnUse">
<stop stop-color="#E3F35C"/>
<stop offset="1" stop-color="#C3E22F"/>
</linearGradient>
<linearGradient id="paint15_linear_5261_20788" x1="104.679" y1="79.3837" x2="106.811" y2="95.702" gradientUnits="userSpaceOnUse">
<stop stop-color="#30A0DE"/>
<stop offset="1" stop-color="#194383"/>
</linearGradient>
<linearGradient id="paint16_linear_5261_20788" x1="104.577" y1="83.1581" x2="106.509" y2="95.6544" gradientUnits="userSpaceOnUse">
<stop stop-color="#30A0DE"/>
<stop offset="1" stop-color="#194383"/>
</linearGradient>
<linearGradient id="paint17_linear_5261_20788" x1="129.609" y1="96.6242" x2="147.549" y2="112.445" gradientUnits="userSpaceOnUse">
<stop stop-color="#68C179"/>
<stop offset="1" stop-color="#25A062"/>
</linearGradient>
<linearGradient id="paint18_linear_5261_20788" x1="145.276" y1="102.905" x2="150.181" y2="88.8049" gradientUnits="userSpaceOnUse">
<stop stop-color="#DB593D"/>
<stop offset="1" stop-color="#F88461"/>
</linearGradient>
<linearGradient id="paint19_linear_5261_20788" x1="145.795" y1="97.8438" x2="147.312" y2="88.367" gradientUnits="userSpaceOnUse">
<stop stop-color="#CD4C30"/>
<stop offset="1" stop-color="#F88461" stop-opacity="0"/>
</linearGradient>
<linearGradient id="paint20_linear_5261_20788" x1="145.679" y1="92.9895" x2="145.671" y2="89.6304" gradientUnits="userSpaceOnUse">
<stop stop-color="#13DBBF"/>
<stop offset="1" stop-color="#08B58B"/>
</linearGradient>
<linearGradient id="paint21_linear_5261_20788" x1="146.627" y1="88.5121" x2="146.154" y2="87.4805" gradientUnits="userSpaceOnUse">
<stop stop-color="#13DBBF"/>
<stop offset="1" stop-color="#08B58B"/>
</linearGradient>
<linearGradient id="paint22_linear_5261_20788" x1="144.36" y1="84.6252" x2="147.042" y2="88.073" gradientUnits="userSpaceOnUse">
<stop stop-color="#13DBBF"/>
<stop offset="1" stop-color="#08B58B"/>
</linearGradient>
<linearGradient id="paint23_linear_5261_20788" x1="150.081" y1="90.0499" x2="149.907" y2="87.4691" gradientUnits="userSpaceOnUse">
<stop stop-color="#13DBBF"/>
<stop offset="1" stop-color="#08B58B"/>
</linearGradient>
<linearGradient id="paint24_linear_5261_20788" x1="146.381" y1="90.4183" x2="149.901" y2="88.4355" gradientUnits="userSpaceOnUse">
<stop stop-color="#13DBBF"/>
<stop offset="1" stop-color="#08B58B"/>
</linearGradient>
<linearGradient id="paint25_linear_5261_20788" x1="148.058" y1="89.4568" x2="147.293" y2="89.6147" gradientUnits="userSpaceOnUse">
<stop stop-color="#E3F35C"/>
<stop offset="1" stop-color="#C3E22F"/>
</linearGradient>
<linearGradient id="paint26_linear_5261_20788" x1="147.49" y1="89.4075" x2="146.725" y2="89.5654" gradientUnits="userSpaceOnUse">
<stop stop-color="#E3F35C"/>
<stop offset="1" stop-color="#C3E22F"/>
</linearGradient>
<linearGradient id="paint27_linear_5261_20788" x1="131.225" y1="98.4069" x2="147.116" y2="107.306" gradientUnits="userSpaceOnUse">
<stop stop-color="#68C179"/>
<stop offset="1" stop-color="#25A062"/>
</linearGradient>
<linearGradient id="paint28_linear_5261_20788" x1="119.82" y1="102.494" x2="124.273" y2="128.797" gradientUnits="userSpaceOnUse">
<stop stop-color="#77EBFF"/>
<stop offset="1" stop-color="#4D86DE"/>
</linearGradient>
<linearGradient id="paint29_linear_5261_20788" x1="82.6565" y1="100.499" x2="118.522" y2="152.953" gradientUnits="userSpaceOnUse">
<stop stop-color="#91F6FF"/>
<stop offset="1" stop-color="#4D86DE"/>
</linearGradient>
<linearGradient id="paint30_linear_5261_20788" x1="124.292" y1="98.9419" x2="129.998" y2="138.636" gradientUnits="userSpaceOnUse">
<stop stop-color="#77EBFF"/>
<stop offset="1" stop-color="#4D86DE"/>
</linearGradient>
<linearGradient id="paint31_linear_5261_20788" x1="99.3762" y1="111.359" x2="122.517" y2="150.485" gradientUnits="userSpaceOnUse">
<stop stop-color="#91F6FF"/>
<stop offset="1" stop-color="#4D86DE"/>
</linearGradient>
<linearGradient id="paint32_linear_5261_20788" x1="151.876" y1="73.8765" x2="160.088" y2="79.3662" gradientUnits="userSpaceOnUse">
<stop stop-color="#C1FFF7"/>
<stop offset="1" stop-color="#93E9DE"/>
</linearGradient>
<linearGradient id="paint33_linear_5261_20788" x1="121.125" y1="59.2318" x2="130.443" y2="65.4612" gradientUnits="userSpaceOnUse">
<stop stop-color="#C1FFF7"/>
<stop offset="1" stop-color="#93E9DE"/>
</linearGradient>
<clipPath id="clip0_5261_20788">
<rect width="120" height="166" rx="24" transform="matrix(-0.965926 -0.258819 -0.258819 0.965926 208.244 34.7124)" fill="white"/>
</clipPath>
</defs>
</svg>
